<?xml version="1.0" standalone="no"?>
<!DOCTYPE svg PUBLIC "-//W3C//DTD SVG 20010904//EN"
 "http://www.w3.org/TR/2001/REC-SVG-20010904/DTD/svg10.dtd">
<svg version="1.0" xmlns="http://www.w3.org/2000/svg"
 width="5000.000000pt" height="4000.000000pt" viewBox="0 0 5000.000000 4000.000000"
 preserveAspectRatio="xMidYMid meet">

<g transform="translate(0.000000,4000.000000) scale(0.100000,-0.100000)"
fill="#000000" stroke="none">
<path d="M22625 29768 c-66 -77 -130 -152 -142 -167 l-22 -28 50 -114 c210
-475 387 -1123 484 -1769 15 -101 34 -193 45 -218 l20 -43 -40 -197 c-144
-719 -177 -1463 -104 -2337 8 -104 19 -212 23 -240 6 -45 8 -38 15 65 13 217
60 657 73 690 3 8 12 -23 19 -70 29 -178 66 -375 73 -382 3 -4 20 18 36 50
158 304 152 295 221 332 35 19 64 35 64 37 0 2 -7 47 -14 101 -57 376 -65 933
-20 1190 5 25 3 32 -10 32 -9 0 -16 5 -16 10 0 15 82 176 140 274 l51 87 -186
265 c-103 146 -185 267 -183 269 2 2 47 -12 101 -30 53 -19 97 -33 97 -31 0 2
-9 25 -21 51 -20 44 -20 47 -3 60 21 15 18 42 -42 370 -115 630 -332 1345
-545 1792 l-44 91 -120 -140z"/>
<path d="M19984 28788 c-65 -78 -122 -147 -127 -154 -4 -8 20 -55 67 -126 196
-300 386 -694 531 -1106 4 -11 13 -9 39 7 18 12 36 21 39 21 3 0 -48 -159
-112 -353 l-118 -352 84 -75 c229 -204 495 -541 713 -904 l54 -90 -35 -30 -36
-29 58 -92 c173 -275 321 -600 443 -975 36 -109 73 -227 82 -264 9 -36 21 -66
26 -66 4 0 35 14 68 30 33 17 60 28 60 25 0 -3 -65 -135 -145 -295 l-145 -289
83 -103 c136 -170 275 -396 388 -633 56 -119 184 -431 201 -492 8 -30 11 -32
76 -38 37 -3 84 -8 105 -11 20 -3 37 -2 37 3 0 5 -13 90 -30 189 -78 478 -194
929 -345 1344 l-65 178 71 164 c39 89 71 174 71 188 -1 35 -157 538 -240 770
-121 338 -216 571 -345 845 l-66 140 -13 155 c-20 235 -17 912 5 1110 25 228
63 445 109 620 22 85 41 161 41 169 3 21 -344 176 -354 159 -11 -18 -65 -214
-94 -343 -63 -283 -115 -704 -115 -940 0 -45 -3 -117 -7 -159 l-6 -77 -18 28
c-9 15 -32 78 -49 138 -187 655 -457 1259 -777 1743 -41 61 -78 112 -82 112
-4 0 -61 -64 -127 -142z"/>
<path d="M25467 28223 c-45 -89 -145 -347 -196 -507 -90 -279 -160 -585 -206
-900 l-25 -169 56 -95 c46 -77 55 -100 50 -124 -5 -26 -3 -29 12 -23 47 20 55
13 100 -90 209 -475 341 -1075 391 -1785 l10 -135 -45 -145 c-53 -171 -131
-469 -173 -661 -40 -183 -103 -528 -99 -539 2 -5 116 47 255 115 l252 124 26
86 c200 656 467 1202 775 1587 l89 110 -165 330 -165 330 -22 -24 c-12 -13
-44 -48 -70 -78 l-48 -54 2 195 c2 216 13 430 30 561 l10 86 -238 286 -238
286 -3 -188 c-2 -103 0 -246 3 -318 l7 -131 159 -216 c87 -120 159 -220 159
-223 0 -4 -49 -106 -110 -227 -60 -122 -110 -233 -111 -247 0 -14 -15 40 -33
120 -77 341 -165 618 -282 894 -35 83 -68 157 -73 165 -7 11 -25 4 -88 -36
-43 -27 -83 -53 -90 -56 -11 -7 -89 90 -79 100 3 3 33 -4 67 -16 34 -11 64
-19 66 -17 2 2 14 77 27 167 65 444 169 834 313 1172 30 71 53 130 52 131 -2
2 -67 43 -144 91 -77 48 -150 94 -162 102 -21 14 -23 12 -46 -34z m480 -2845
c-3 -8 -6 -5 -6 6 -1 11 2 17 5 13 3 -3 4 -12 1 -19z"/>
<path d="M24060 28075 c-84 -63 -155 -117 -157 -119 -2 -2 13 -32 33 -66 108
-185 235 -532 298 -816 20 -88 36 -170 36 -182 0 -11 4 -23 9 -27 5 -3 88 40
184 96 l174 101 -18 87 c-42 188 -117 429 -194 617 -38 91 -156 333 -192 391
l-20 33 -153 -115z"/>
<path d="M27113 28014 c-100 -214 -196 -502 -258 -773 -14 -62 -24 -118 -22
-124 4 -13 131 279 190 438 68 182 156 522 145 557 -2 6 -27 -38 -55 -98z"/>
<path d="M26622 27870 c-100 -9 -185 -20 -189 -23 -16 -17 -193 -558 -193
-593 0 -1 80 44 178 101 97 56 180 101 184 99 4 -3 21 -30 39 -61 l32 -57 12
35 c7 19 51 140 99 270 47 129 86 239 86 242 0 9 -36 8 -248 -13z"/>
<path d="M22126 27293 c-4 -27 -11 -171 -16 -322 -14 -409 7 -968 56 -1476 20
-216 73 -684 80 -715 6 -25 6 -25 19 8 8 17 19 32 25 32 6 0 48 -15 95 -34 82
-33 85 -34 80 -13 -9 42 -44 293 -64 462 -75 626 -91 1321 -40 1743 l10 83
-116 140 c-64 76 -118 139 -120 139 -2 0 -6 -21 -9 -47z"/>
<path d="M19253 26975 c3 -17 8 -52 12 -80 10 -95 76 -600 80 -621 3 -12 74
-76 167 -151 379 -304 757 -670 1073 -1040 48 -57 90 -103 92 -103 3 0 -25 56
-60 124 l-65 124 76 53 c42 30 80 57 85 60 21 15 -580 756 -859 1059 -119 129
-418 432 -518 523 -81 75 -88 79 -83 52z"/>
<path d="M26970 26638 c-50 -235 -94 -532 -120 -810 -28 -297 -28 -294 16
-316 30 -14 44 -33 84 -112 27 -52 64 -123 83 -158 l34 -63 12 133 c34 389 78
700 143 1026 22 112 38 205 36 207 -1 1 -37 18 -78 38 -41 19 -103 51 -137 71
l-62 35 -11 -51z"/>
<path d="M23970 26603 c0 -218 41 -927 53 -940 2 -1 43 94 91 212 50 121 94
215 101 215 7 0 62 -20 121 -44 106 -42 109 -43 117 -23 4 12 7 32 5 45 -3 23
-464 590 -480 591 -5 1 -8 -25 -8 -56z"/>
<path d="M27740 26479 c0 -7 27 -204 60 -438 118 -829 283 -2091 365 -2786 19
-165 38 -318 40 -340 60 -495 178 -1570 245 -2230 22 -220 42 -403 43 -407 1
-4 110 -44 242 -89 324 -109 666 -254 843 -358 l70 -41 64 30 c122 57 211 50
285 -25 34 -33 53 -44 88 -48 82 -12 160 -63 201 -133 26 -44 26 -47 11 -80
-9 -19 -13 -34 -9 -34 11 0 26 30 56 111 67 182 126 242 264 269 54 11 65 17
83 46 30 49 102 109 147 122 22 7 70 12 108 12 133 0 249 -84 310 -225 l28
-65 71 0 c200 -1 384 -105 444 -251 l24 -56 34 38 c19 21 67 54 105 74 63 31
80 35 148 35 42 0 96 -7 121 -15 61 -21 138 -81 176 -139 l33 -48 11 28 c42
112 156 152 271 95 l41 -20 18 23 c37 47 123 69 181 47 13 -5 43 -25 67 -45
23 -20 53 -36 65 -36 12 0 60 13 106 30 156 55 262 34 325 -62 17 -26 37 -47
45 -48 60 -3 160 -80 196 -151 29 -59 30 -73 3 -110 -22 -31 -12 -40 13 -11 9
9 35 53 59 96 48 87 108 155 160 182 20 10 70 20 117 24 80 7 84 8 125 48 23
22 62 50 87 61 56 25 157 28 224 5 98 -34 205 -168 222 -280 5 -36 11 -45 31
-50 13 -4 27 -3 30 0 9 9 63 573 63 661 0 62 -42 382 -51 389 -2 1 -44 19 -92
40 -48 22 -111 53 -140 70 l-51 31 -72 555 c-40 305 -74 570 -76 589 l-3 34
155 54 c85 30 156 55 157 57 3 2 -122 780 -132 822 -4 18 9 28 88 71 114 61
277 136 422 194 61 24 111 44 113 45 1 1 25 185 52 410 119 971 248 1956 364
2779 36 247 63 452 61 454 -2 1 -39 -8 -82 -23 -350 -115 -861 -225 -1393
-300 -518 -74 -1044 -117 -1740 -145 -283 -12 -1551 -6 -1795 8 -338 19 -641
41 -852 61 -110 11 -206 20 -212 20 -13 0 -16 -336 -3 -344 8 -5 343 -40 537
-56 112 -9 776 -50 812 -50 14 0 13 -21 -1 -31 -5 -4 -4 -21 3 -39 10 -29 8
-35 -17 -59 -16 -14 -37 -41 -47 -58 -11 -18 -25 -33 -31 -33 -7 0 -16 -9 -19
-20 -3 -11 -14 -27 -23 -37 -9 -9 -18 -29 -18 -45 -3 -54 -4 -58 -19 -58 -8 0
-15 -8 -15 -19 0 -10 -7 -24 -16 -32 -9 -7 -13 -21 -10 -34 4 -14 -1 -25 -14
-33 -11 -7 -20 -19 -20 -27 0 -10 -10 -15 -32 -15 -25 0 -29 -3 -18 -10 12 -7
12 -12 2 -22 -10 -10 -14 -10 -21 0 -5 9 -10 -1 -14 -28 -4 -32 -14 -50 -42
-75 -37 -32 -37 -33 -24 -69 7 -20 19 -36 27 -36 7 0 10 -5 6 -11 -4 -8 -9 -8
-17 0 -16 16 -30 13 -23 -5 8 -20 -3 -64 -16 -64 -13 0 -68 -56 -68 -69 0 -6
-9 -11 -20 -11 -11 0 -24 -8 -27 -17 -9 -24 -45 -63 -59 -63 -6 0 -24 -15 -41
-32 -16 -18 -48 -48 -71 -67 -34 -28 -44 -45 -61 -105 -12 -39 -28 -84 -36
-99 -8 -16 -15 -36 -15 -44 0 -10 -6 -14 -20 -10 -16 4 -20 0 -20 -19 0 -25
-15 -33 -23 -11 -4 10 -6 10 -6 0 -1 -7 -8 -13 -16 -13 -8 0 -15 -4 -15 -10 0
-5 -12 -16 -27 -24 -36 -18 -73 -51 -73 -63 0 -6 -6 -16 -14 -22 -24 -20 -27
-53 -5 -58 15 -4 17 -8 8 -19 -13 -16 -39 -19 -39 -4 0 6 -7 10 -15 10 -8 0
-15 -6 -15 -13 0 -7 -10 -17 -22 -22 -13 -6 -22 -16 -20 -23 1 -7 -5 -12 -14
-12 -8 0 -35 -13 -59 -30 -24 -16 -50 -30 -59 -30 -8 0 -18 -6 -23 -12 -5 -9
-10 -3 -14 17 l-7 30 -1 -35 c-1 -32 -3 -33 -15 -17 -12 16 -14 13 -20 -25 -3
-24 -8 -756 -12 -1626 -6 -1311 -9 -1585 -20 -1589 -8 -3 -11 -10 -7 -16 3 -6
1 -7 -5 -3 -7 4 -24 1 -39 -7 -63 -32 -101 -45 -125 -40 -14 3 -29 0 -32 -6
-4 -6 -26 -11 -49 -12 -23 -1 -53 -5 -67 -10 l-25 -9 25 3 c18 3 26 -1 26 -13
0 -13 -8 -15 -48 -10 -30 4 -45 3 -41 -4 4 -5 -1 -7 -12 -3 -9 4 -23 3 -29 -2
-12 -10 -53 -22 -154 -44 -30 -7 -51 -16 -48 -20 3 -4 1 -3 -5 2 -7 6 -47 363
-100 888 -48 483 -106 1049 -128 1258 -23 209 -43 403 -46 430 -3 28 -6 58 -7
68 -4 30 -24 18 -22 -13 2 -27 -1 -29 -42 -36 -24 -3 -44 -10 -44 -15 0 -5
-11 -9 -25 -9 -23 0 -24 2 -15 21 7 12 18 18 26 15 8 -3 13 0 11 7 -1 8 14 13
41 15 31 2 42 7 39 16 -3 8 1 24 10 35 24 36 10 33 -35 -5 -23 -20 -58 -40
-77 -45 -19 -5 -42 -17 -51 -26 -14 -15 -15 -18 -1 -22 12 -5 13 -8 2 -18 -10
-9 -14 -8 -18 8 -3 10 -12 19 -21 19 -9 0 -16 7 -16 15 0 8 5 15 11 15 5 0 7
-5 3 -12 -4 -6 -3 -8 4 -4 5 3 13 0 15 -6 4 -9 6 -10 6 -1 1 6 -8 18 -19 26
-18 12 -25 58 -69 413 -94 752 -216 1675 -311 2343 -33 234 -58 426 -56 428 2
2 34 -14 70 -36 36 -23 111 -64 166 -91 115 -58 107 -65 89 83 l-12 92 -161
41 c-138 36 -358 100 -410 120 -10 4 -16 1 -16 -7z m3274 -828 c3 -5 0 -11 -7
-14 -8 -3 -14 1 -14 9 0 16 13 19 21 5z m21 -41 c-3 -5 -11 -10 -16 -10 -6 0
-7 5 -4 10 3 6 11 10 16 10 6 0 7 -4 4 -10z m-78 -112 c-3 -8 -6 -5 -6 6 -1
11 2 17 5 13 3 -3 4 -12 1 -19z m-872 -1348 c-3 -5 -12 -10 -18 -10 -7 0 -6 4
3 10 19 12 23 12 15 0z m-45 -25 c11 -13 10 -14 -4 -9 -9 3 -16 10 -16 15 0
13 6 11 20 -6z m-70 -55 c0 -13 -11 -13 -30 0 -12 8 -11 10 8 10 12 0 22 -4
22 -10z m-85 -70 c3 -5 -1 -10 -10 -10 -9 0 -13 5 -10 10 3 6 8 10 10 10 2 0
7 -4 10 -10z m-1425 -980 c0 -11 -2 -20 -4 -20 -2 0 -6 9 -9 20 -3 11 -1 20 4
20 5 0 9 -9 9 -20z m1 -73 c-10 -9 -11 -8 -5 6 3 10 9 15 12 12 3 -3 0 -11 -7
-18z m939 -2377 c-8 -5 -22 -10 -30 -10 -13 0 -13 1 0 10 8 5 22 10 30 10 13
0 13 -1 0 -10z"/>
<path d="M18762 25890 c54 -79 163 -257 204 -332 42 -78 49 -86 63 -74 9 8 58
36 110 64 l93 50 -203 134 c-112 74 -222 145 -244 159 l-40 23 17 -24z"/>
<path d="M27687 25835 c-10 -32 -74 -320 -97 -439 l-20 -109 -108 -146 c-199
-268 -399 -572 -619 -941 -141 -236 -286 -491 -281 -495 4 -4 244 147 453 287
171 114 184 125 256 216 82 103 282 327 407 454 l76 77 -2 258 c-1 142 -5 323
-8 403 -7 163 -46 466 -57 435z"/>
<path d="M19356 25402 l-166 -332 65 -78 c242 -287 470 -702 653 -1187 57
-153 154 -440 168 -498 3 -15 25 -43 48 -61 51 -42 308 -217 312 -213 6 6 -76
340 -125 510 -53 183 -143 453 -185 557 l-26 64 56 135 c31 75 70 165 86 201
17 36 39 88 50 115 l20 50 -122 118 c-99 97 -126 129 -149 180 -102 227 -287
507 -480 727 l-39 44 -166 -332z"/>
<path d="M23601 25228 c-119 -232 -142 -284 -133 -299 6 -10 40 -53 74 -96 35
-43 85 -111 113 -151 43 -64 47 -75 33 -83 -15 -8 -14 -17 8 -96 132 -479 169
-1156 100 -1865 -6 -71 -8 -128 -3 -128 12 0 283 67 343 85 l51 15 6 57 c8 81
26 368 34 558 l6 160 19 -60 c28 -85 158 -603 158 -626 0 -10 5 -19 11 -19 12
0 8 98 -17 425 -48 631 -154 1209 -323 1766 -84 277 -135 405 -189 475 -42 55
-139 164 -145 164 -1 0 -67 -127 -146 -282z"/>
<path d="M24741 25263 l-93 -154 32 -132 c120 -494 180 -1007 201 -1742 6
-209 12 -381 14 -383 2 -2 197 77 203 82 4 4 -17 546 -28 751 -26 453 -73 894
-136 1270 -31 190 -84 448 -92 457 -4 3 -49 -63 -101 -149z"/>
<path d="M30525 24910 c-21 -23 -12 -39 13 -24 19 12 29 44 14 44 -5 0 -17 -9
-27 -20z"/>
<path d="M30460 24840 c-7 -17 -10 -33 -8 -36 3 -2 11 9 18 26 7 17 10 33 8
36 -3 2 -11 -9 -18 -26z"/>
<path d="M21038 24221 l-197 -321 39 -175 c51 -219 103 -528 135 -799 14 -115
26 -211 28 -213 2 -2 73 -30 158 -62 85 -32 162 -62 172 -66 15 -6 17 -4 13
16 -27 127 -36 197 -36 288 l0 107 -71 108 c-38 60 -100 150 -138 200 -37 50
-70 97 -75 103 -7 12 42 111 187 378 l59 110 -7 90 c-6 92 -48 435 -62 514
l-8 44 -197 -322z"/>
<path d="M23079 24424 c-20 -32 -109 -178 -198 -323 l-162 -263 20 -82 c80
-326 148 -758 186 -1185 9 -96 17 -176 18 -177 8 -8 273 20 280 30 11 15 1
946 -13 1161 -19 308 -48 590 -83 820 l-12 79 -36 -60z"/>
<path d="M27696 24458 c-3 -7 -23 -137 -46 -288 -23 -151 -46 -279 -51 -285
-18 -18 -284 -223 -286 -221 -2 2 4 58 12 126 9 67 14 125 11 127 -3 4 -1482
-829 -1978 -1114 l-77 -44 39 -80 c22 -43 40 -83 40 -88 0 -21 -461 -182 -790
-276 -880 -252 -1611 -329 -2543 -269 -28 1 -45 -1 -41 -7 3 -5 10 -7 15 -4 5
4 10 -21 10 -57 1 -35 2 -74 3 -88 1 -14 -6 -34 -14 -44 -8 -11 -10 -17 -5
-13 6 3 11 -3 11 -13 0 -12 -4 -16 -11 -10 -7 6 -11 -1 -10 -23 0 -22 4 -31
14 -29 12 3 12 1 1 -13 -9 -11 -10 -19 -3 -23 19 -13 20 -37 1 -72 -10 -19
-18 -41 -18 -48 0 -7 -4 -11 -8 -8 -5 3 -6 -9 -4 -25 4 -29 -22 -69 -47 -69
-10 0 -21 -24 -21 -46 0 -8 10 -14 23 -14 13 0 17 -3 11 -8 -7 -4 -11 -26 -11
-49 1 -23 5 -36 9 -30 5 7 8 2 8 -14 0 -14 -8 -34 -18 -45 -48 -53 -81 -103
-71 -106 7 -2 9 -12 5 -26 -6 -19 -9 -20 -22 -8 -16 17 -18 42 -4 51 6 4 8 11
4 16 -8 13 -44 -25 -44 -46 0 -8 7 -15 15 -15 22 0 19 -43 -5 -70 -22 -25 -27
-45 -8 -34 7 5 8 3 4 -5 -5 -7 -14 -10 -22 -7 -11 4 -14 -5 -14 -40 0 -41 -5
-51 -44 -90 -24 -23 -46 -49 -49 -56 -3 -7 -6 23 -5 67 0 44 -3 96 -6 115 -3
19 -10 130 -16 245 -13 267 -29 564 -35 635 -2 30 -4 86 -5 124 0 59 -2 67
-16 62 -9 -4 -24 -1 -33 6 -14 11 -14 10 1 -7 15 -19 15 -21 -3 -44 -12 -15
-17 -31 -13 -44 4 -14 3 -17 -7 -12 -9 6 -11 2 -6 -14 4 -16 2 -21 -8 -17 -14
5 -27 -15 -31 -51 -4 -36 -34 -84 -47 -77 -7 4 -9 4 -5 0 3 -4 -5 -24 -18 -44
-14 -19 -23 -40 -21 -46 6 -17 24 -18 31 0 5 12 2 15 -10 10 -14 -5 -15 -4 -4
9 11 13 15 13 22 3 6 -9 8 -7 7 7 -3 45 0 50 18 32 16 -15 16 -18 0 -35 -9
-10 -17 -24 -17 -30 0 -7 -4 -12 -10 -12 -5 0 -10 -13 -10 -30 0 -16 -4 -30
-9 -30 -5 0 -11 -12 -14 -27 -3 -16 -22 -46 -42 -68 -24 -27 -34 -46 -31 -60
3 -13 -3 -26 -20 -38 -21 -15 -24 -16 -24 -2 0 8 -9 15 -20 15 -16 0 -20 -7
-20 -31 0 -21 -10 -40 -30 -61 -30 -29 -38 -48 -21 -48 12 0 65 50 79 75 6 11
12 14 12 7 0 -7 5 -10 10 -7 11 7 -11 -31 -44 -79 -18 -26 -18 -27 -1 -40 10
-7 15 -18 11 -24 -10 -17 -27 -15 -41 4 -10 15 -15 14 -41 -13 -54 -55 -86
-97 -76 -101 17 -5 0 -46 -35 -84 -20 -20 -32 -41 -29 -47 4 -6 1 -9 -7 -5
-34 13 -34 -20 -2 -366 18 -190 30 -352 27 -360 -8 -22 -34 -39 -57 -40 -30 0
-121 -34 -142 -52 -23 -19 -54 -32 -72 -29 -7 1 -30 -4 -51 -13 -20 -8 -46
-12 -57 -10 -16 5 -20 1 -19 -17 0 -12 -5 -24 -13 -27 -10 -3 -12 1 -8 18 3
12 2 30 -3 39 -5 9 -23 156 -40 326 -31 307 -38 352 -47 328 -2 -7 -11 -9 -20
-6 -10 4 -14 2 -10 -4 4 -6 1 -14 -5 -17 -7 -3 1 -4 17 -1 19 4 25 2 17 -3 -8
-5 -13 -13 -13 -18 3 -34 -29 -59 -44 -34 -7 12 -81 -26 -89 -46 -3 -8 -13
-14 -23 -14 -15 0 -16 2 -3 10 9 6 10 10 3 10 -7 0 -22 -10 -35 -22 -25 -25
-66 -26 -75 -2 -8 21 -23 17 -23 -7 0 -17 -3 -19 -14 -10 -11 9 -19 9 -35 -1
-16 -10 -25 -10 -39 -2 -14 9 -23 8 -37 -3 -17 -12 -18 -15 -5 -23 9 -6 10
-10 3 -10 -6 0 -19 -3 -27 -6 -11 -4 -15 -2 -13 7 2 8 2 11 0 7 -3 -5 -11 -8
-19 -8 -12 0 -39 -12 -64 -28 -2 -2 2 -7 10 -12 13 -8 12 -10 -2 -10 -9 0 -18
5 -20 11 -3 8 -9 7 -19 -4 -14 -13 -12 -40 18 -253 18 -132 33 -245 33 -251 0
-17 -37 -17 -43 0 -3 9 -7 9 -20 -2 -14 -11 -20 -11 -32 -1 -10 8 -19 9 -27 3
-28 -22 -58 -22 -73 0 -13 19 -18 20 -69 8 -31 -7 -60 -10 -65 -7 -5 4 -11 0
-14 -6 -3 -7 -5 -4 -5 7 0 11 -21 144 -46 295 -26 151 -98 599 -162 995 -63
396 -162 1012 -219 1368 l-104 649 -48 53 c-26 29 -50 53 -53 54 -4 1 31 -203
77 -451 118 -649 271 -1567 362 -2178 83 -551 281 -2012 281 -2068 0 -8 33 16
73 54 39 38 128 116 197 172 69 57 151 134 182 172 287 343 737 632 1376 884
668 263 1425 435 2392 545 503 57 800 71 1530 71 803 0 1117 -23 1535 -110 50
-10 169 -33 265 -50 349 -63 759 -155 1013 -229 37 -11 67 -17 67 -13 0 3 -29
243 -65 532 -35 289 -87 737 -115 995 -78 724 -146 1296 -307 2567 l-6 47 -66
6 c-36 3 -78 9 -94 11 -17 4 -29 1 -31 -8z m-6416 -3130 c0 -6 -6 -5 -15 2 -8
7 -15 14 -15 16 0 2 7 1 15 -2 8 -4 15 -11 15 -16z m-120 -114 c0 -3 -8 -14
-19 -25 -16 -17 -19 -18 -24 -5 -4 9 -2 16 3 16 6 0 10 7 10 15 0 9 6 12 15 9
8 -4 15 -8 15 -10z m-940 -564 c0 -5 -4 -10 -10 -10 -5 0 -10 5 -10 10 0 6 5
10 10 10 6 0 10 -4 10 -10z m-175 -30 c-3 -5 -11 -10 -16 -10 -6 0 -7 5 -4 10
3 6 11 10 16 10 6 0 7 -4 4 -10z m85 6 c0 -2 -7 -6 -15 -10 -8 -3 -15 -1 -15
4 0 6 7 10 15 10 8 0 15 -2 15 -4z m550 -466 c0 -5 -5 -10 -11 -10 -5 0 -7 5
-4 10 3 6 8 10 11 10 2 0 4 -4 4 -10z"/>
<path d="M16017 24078 c-14 -24 -39 -56 -57 -73 -60 -57 -150 -30 -150 46 0
37 -15 44 -39 20 -11 -11 -33 -23 -48 -26 -16 -3 -48 -14 -73 -23 -37 -15 -47
-24 -58 -57 -8 -22 -21 -59 -29 -83 -18 -51 -42 -65 -149 -87 -152 -31 -194
-66 -194 -160 0 -26 -7 -41 -27 -57 -130 -106 -193 -205 -201 -318 -2 -39 -7
-70 -11 -70 -3 0 -29 16 -56 36 -70 50 -138 83 -177 86 -31 3 -33 0 -57 -57
-22 -52 -26 -76 -27 -189 l-2 -128 -63 -36 c-99 -55 -207 -170 -261 -278 -24
-49 -52 -120 -62 -159 -33 -132 -22 -119 -108 -125 -60 -5 -84 -11 -118 -34
-37 -24 -47 -27 -94 -21 -40 5 -61 3 -85 -10 -40 -20 -86 -91 -110 -171 -34
-110 -51 -137 -125 -208 -87 -83 -102 -122 -112 -276 -8 -110 3 -141 60 -185
l35 -26 -40 -76 c-35 -67 -40 -83 -38 -135 2 -51 -1 -62 -23 -86 -39 -41 -60
-89 -65 -153 -8 -83 30 -159 99 -202 l49 -31 -7 -65 c-4 -40 -17 -86 -32 -116
-29 -55 -28 -27 -19 -415 3 -102 5 -190 6 -196 0 -6 19 -20 41 -33 61 -34 70
-76 41 -198 -35 -145 -20 -202 59 -223 27 -7 52 -6 96 6 76 19 101 13 120 -32
20 -47 11 -89 -43 -198 -25 -52 -43 -104 -43 -124 0 -46 48 -93 125 -120 133
-48 147 -67 156 -205 3 -56 9 -110 14 -119 15 -36 110 -11 141 37 22 33 51 28
112 -22 l42 -35 31 26 c21 18 42 26 70 26 22 0 39 5 39 11 0 8 15 10 45 7 25
-3 47 -2 50 2 2 4 -3 26 -12 48 -22 56 -11 84 47 127 28 20 57 46 65 58 17 24
20 73 5 82 -19 12 -10 43 18 65 23 19 35 21 77 16 155 -20 155 -20 180 4 32
30 39 70 21 113 -20 48 -63 70 -132 65 -63 -4 -64 -2 -94 126 -36 148 -23 321
31 429 62 124 180 226 310 267 94 30 118 23 139 -44 25 -77 63 -91 111 -40 20
21 23 36 24 117 2 82 5 100 31 146 30 56 84 108 122 117 12 4 22 10 22 15 0 4
-60 94 -134 199 -74 105 -142 211 -152 235 -23 61 -14 136 30 259 57 160 114
238 205 280 70 32 204 29 291 -7 72 -30 150 -79 221 -138 26 -22 52 -39 58
-39 24 0 51 40 51 76 0 44 -11 65 -71 135 -77 90 -87 133 -39 181 21 21 37 29
51 25 19 -5 21 -2 15 25 -3 17 -29 64 -57 105 -28 41 -58 91 -66 111 -30 72 4
127 121 192 71 40 118 106 114 160 -2 28 -7 35 -23 33 -65 -9 -133 32 -181
109 -13 21 -57 63 -98 93 l-75 56 15 47 c26 84 26 90 9 142 -9 28 -15 68 -13
89 l3 39 -72 -68 c-40 -38 -94 -82 -119 -99 l-46 -30 -68 72 -68 72 23 20 c31
26 232 286 306 397 52 77 58 90 49 113 -15 39 -12 141 5 182 9 20 26 51 39 67
16 21 25 49 28 89 5 67 27 103 80 132 32 17 36 22 31 52 -9 54 6 101 45 142
20 21 44 40 52 43 13 4 13 7 0 23 -17 20 -86 54 -112 55 -9 0 -27 -19 -41 -42z
m-633 -1095 c32 -65 38 -57 -89 -118 -102 -49 -187 -72 -297 -81 l-77 -7 -35
74 c-19 40 -34 74 -33 74 1 1 74 16 162 33 88 18 194 43 235 56 41 13 82 24
90 25 10 1 27 -22 44 -56z m-85 -363 c10 -33 9 -48 -5 -87 -25 -72 -30 -239
-10 -346 12 -60 15 -108 10 -149 l-7 -61 -18 24 c-27 35 -122 223 -152 299
-23 58 -54 164 -71 241 -5 25 -2 27 94 58 54 18 107 39 117 47 26 20 29 18 42
-26z m-898 -394 c35 -13 65 -28 66 -33 2 -6 15 -8 28 -5 14 2 25 2 25 -2 0 -3
-43 -49 -95 -102 l-95 -96 -60 43 c-33 23 -60 47 -60 54 0 21 99 165 114 165
7 0 42 -11 77 -24z m1267 -596 c11 -5 11 -9 -1 -18 -11 -9 -21 -6 -48 13 l-33
25 34 -6 c19 -4 41 -10 48 -14z m-1644 -114 c78 -56 193 -173 252 -256 70
-100 155 -276 177 -371 6 -24 3 -28 -41 -44 -26 -10 -66 -28 -89 -40 l-42 -23
-10 29 c-16 45 -223 347 -332 484 -89 111 -99 127 -87 143 20 27 102 122 107
122 2 0 31 -20 65 -44z m930 -405 c35 -22 111 -65 169 -95 l104 -56 -21 -71
-21 -70 -43 6 c-116 17 -273 87 -393 176 l-83 62 85 29 c46 16 95 35 109 43
14 8 26 15 27 15 2 0 32 -18 67 -39z m457 -471 l56 -111 -81 -50 c-50 -31 -89
-48 -101 -45 -11 2 -62 22 -113 45 -51 23 -119 48 -152 58 -46 12 -60 21 -60
35 0 11 -5 16 -10 13 -6 -4 -7 -11 -4 -17 5 -7 2 -8 -7 -2 -8 5 -25 9 -39 10
-122 3 -132 14 -32 34 77 15 340 89 422 119 30 11 57 20 60 20 3 1 30 -49 61
-109z m-1264 15 c7 -33 12 -86 13 -117 l0 -58 -52 -2 c-80 -2 -86 -3 -94 -11
-4 -4 -10 -7 -14 -7 -7 0 -3 134 6 207 5 41 6 42 47 46 80 7 80 8 94 -58z
m406 -134 c-27 -20 -41 -37 -41 -53 0 -26 -31 -210 -36 -215 -2 -2 -29 -1 -60
3 l-56 7 0 91 c0 50 -3 108 -6 129 l-7 37 49 0 c27 1 76 7 109 14 88 20 92 19
48 -13z m-114 -579 c7 -33 11 -68 9 -79 -2 -12 6 -29 19 -39 12 -11 38 -59 57
-107 20 -48 61 -137 91 -197 30 -60 55 -112 55 -114 0 -3 -27 -25 -59 -50
l-59 -46 -43 48 c-127 143 -218 349 -235 535 l-6 74 58 7 c33 4 66 11 74 16
24 15 25 13 39 -48z"/>
<path d="M15035 22930 c3 -5 8 -10 11 -10 2 0 4 5 4 10 0 6 -5 10 -11 10 -5 0
-7 -4 -4 -10z"/>
<path d="M14041 21224 c0 -11 3 -14 6 -6 3 7 2 16 -1 19 -3 4 -6 -2 -5 -13z"/>
<path d="M14151 21085 c9 -11 19 -33 23 -48 4 -15 11 -25 16 -22 12 8 -12 56
-37 76 -17 13 -17 13 -2 -6z"/>
<path d="M14210 20995 c0 -15 18 -40 24 -34 3 3 -1 14 -9 25 -8 10 -14 15 -15
9z"/>
<path d="M14990 21043 c8 -3 22 -11 30 -17 13 -10 13 -9 1 7 -7 9 -21 17 -30
16 -13 0 -14 -1 -1 -6z"/>
<path d="M15055 20610 c-4 -6 -12 -7 -18 -4 -9 5 -9 4 0 -6 7 -8 16 -9 28 -2
11 6 14 12 7 16 -6 3 -13 2 -17 -4z"/>
<path d="M15098 20613 c7 -3 16 -2 19 1 4 3 -2 6 -13 5 -11 0 -14 -3 -6 -6z"/>
<path d="M14440 19816 c0 -2 8 -10 18 -17 15 -13 16 -12 3 4 -13 16 -21 21
-21 13z"/>
<path d="M14465 19763 c2 -10 4 -19 5 -20 2 -2 3 -7 4 -12 0 -5 4 -12 8 -16 5
-6 3 25 -2 33 -2 1 -3 6 -4 11 0 5 -4 12 -8 16 -3 4 -5 -1 -3 -12z"/>
<path d="M29680 23956 c0 -8 4 -17 9 -20 10 -7 23 19 14 28 -11 11 -23 6 -23
-8z"/>
<path d="M37977 23274 c-1 -1 -69 -4 -152 -7 -190 -8 -464 -31 -670 -58 -88
-11 -182 -23 -208 -26 -30 -4 -46 -10 -44 -17 3 -7 -1 -20 -9 -31 -12 -16 -14
-16 -14 -3 0 9 -6 19 -12 22 -7 3 -2 3 11 0 16 -4 21 -3 17 5 -4 6 -17 11 -30
11 -21 0 -22 -4 -19 -52 2 -29 5 -61 8 -71 3 -14 -1 -17 -13 -12 -9 3 -13 3
-9 -1 4 -4 2 -13 -3 -19 -14 -16 44 -12 195 14 465 80 1011 117 1457 100 222
-8 255 -11 503 -35 611 -61 1355 -230 1873 -426 112 -43 133 -54 138 -75 4
-15 1 -30 -7 -38 -35 -35 -550 -190 -889 -269 -522 -121 -1152 -199 -1573
-195 l-152 2 135 8 c578 35 1239 150 1805 314 200 58 495 156 495 165 0 7
-243 85 -430 139 -425 121 -971 224 -1420 266 -800 75 -1621 16 -2443 -175
-258 -60 -787 -214 -787 -230 0 -7 261 -96 422 -144 l117 -35 133 53 c166 66
348 127 359 121 4 -3 -2 -26 -15 -50 -14 -26 -20 -45 -14 -47 14 -5 -9 -78
-24 -78 -6 0 -8 -17 -6 -40 3 -38 -5 -54 -15 -27 -3 7 -6 7 -6 1 -2 -29 47
-45 289 -93 356 -70 713 -118 1050 -141 116 -7 99 -8 -125 -5 -248 3 -438 17
-715 50 -132 16 -432 62 -464 72 -12 3 -16 1 -12 -6 10 -15 -1 -14 -29 5 l-24
16 -16 -59 c-9 -32 -20 -65 -24 -74 -5 -8 -14 -41 -21 -72 -6 -31 -18 -64 -27
-72 -12 -12 -13 -19 -3 -30 17 -20 38 -19 36 1 0 9 5 19 13 22 10 3 13 -1 9
-16 -7 -24 -8 -24 292 -52 917 -83 1898 -76 2890 21 618 60 1189 169 1534 293
55 20 101 34 103 32 6 -6 -203 -91 -332 -136 -381 -131 -924 -241 -1550 -315
-621 -73 -1627 -88 -2315 -34 -529 41 -1175 146 -1534 249 -53 15 -72 17 -77
8 -6 -9 -10 -8 -15 5 -3 9 -10 14 -15 11 -5 -3 -9 0 -9 5 0 6 -5 11 -11 11 -5
0 -7 -4 -4 -10 3 -5 1 -10 -5 -10 -6 0 -13 7 -17 16 -5 14 -8 12 -19 -7 -7
-13 -13 -34 -14 -46 0 -12 -4 -23 -9 -25 -5 -1 -3 -9 5 -16 12 -11 17 -7 31
25 10 21 18 39 19 41 3 6 34 -11 34 -19 0 -6 -16 -33 -35 -62 -19 -28 -35 -47
-35 -42 0 6 -5 3 -11 -5 -8 -11 -9 -8 -4 13 4 19 2 26 -5 22 -5 -3 -10 -1 -10
4 0 22 -18 10 -31 -21 -15 -36 -13 -59 4 -71 8 -5 4 -14 -12 -28 -14 -11 -26
-30 -28 -41 -4 -26 -22 -50 -33 -43 -5 3 -12 0 -16 -6 -3 -6 0 -15 7 -20 10
-6 11 -9 2 -9 -7 0 -13 -8 -14 -17 0 -12 -2 -13 -6 -5 -7 17 -53 -36 -53 -61
0 -11 -8 -21 -18 -24 -16 -4 -61 -63 -48 -63 2 0 91 -25 197 -55 837 -238
2153 -346 3484 -285 1016 47 1873 174 2394 356 69 23 126 42 128 40 1 -1 -43
-22 -100 -46 -552 -234 -1289 -378 -2362 -460 -228 -18 -1080 -24 -1372 -11
-452 21 -887 66 -1262 131 -95 17 -179 30 -187 30 -14 0 -47 -30 -105 -96 -14
-16 -38 -38 -53 -48 -16 -12 -24 -25 -21 -35 3 -10 -3 -20 -18 -26 -12 -6 -21
-18 -21 -27 1 -10 -4 -14 -12 -11 -9 3 -11 -2 -7 -19 4 -18 3 -20 -6 -8 -9 12
-11 11 -11 -8 0 -12 -4 -21 -8 -20 -8 3 -34 -22 -95 -91 -12 -13 -16 -21 -9
-17 8 5 12 -2 12 -24 0 -25 -4 -31 -15 -26 -8 3 -15 1 -15 -5 0 -6 -4 -7 -10
-4 -5 3 -10 1 -10 -5 0 -7 6 -10 14 -7 7 3 17 2 22 -3 10 -10 278 -68 454 -99
194 -34 434 -64 770 -96 237 -22 1047 -53 1095 -41 11 3 133 6 270 7 260 3
629 21 865 44 25 2 99 9 165 15 186 17 648 77 840 110 594 102 1092 251 1358
407 48 29 87 50 87 47 0 -12 -198 -132 -295 -179 -566 -273 -1441 -459 -2545
-542 -290 -22 -1255 -25 -1520 -5 -964 72 -1716 246 -2220 513 -80 43 -147 85
-314 199 -11 8 -18 10 -14 6 9 -10 -14 -57 -36 -75 -13 -11 -16 -11 -16 0 0 8
9 20 21 27 33 21 14 26 -20 6 -32 -19 -40 -39 -18 -47 7 -2 8 -8 3 -13 -5 -5
-11 -4 -13 4 -7 19 -26 14 -60 -18 -21 -19 -30 -37 -28 -50 2 -11 -1 -20 -7
-20 -5 0 -7 7 -4 16 3 9 2 12 -5 9 -11 -8 -9 -40 21 -280 19 -148 24 -172 43
-187 30 -24 285 -136 447 -196 1193 -442 2831 -598 4425 -421 697 77 1421 249
1970 468 171 68 334 147 340 163 4 12 135 1011 135 1033 0 5 -72 35 -160 65
-155 53 -160 56 -155 80 15 75 135 833 132 836 -15 15 -328 156 -482 217 -683
271 -1483 454 -2285 522 -234 19 -695 37 -903 33 -92 -1 -169 -3 -170 -4z
m-1057 -168 c0 -42 -14 -72 -38 -84 -33 -15 -39 -9 -7 8 20 11 25 21 25 52 0
21 5 38 10 38 6 0 10 -6 10 -14z m-95 -536 c-3 -5 -12 -10 -18 -10 -7 0 -6 4
3 10 19 12 23 12 15 0z m4655 -330 c-8 -5 -19 -10 -25 -10 -5 0 -3 5 5 10 8 5
20 10 25 10 6 0 3 -5 -5 -10z m-4817 -45 c-3 -9 -8 -14 -10 -11 -3 3 -2 9 2
15 9 16 15 13 8 -4z m-23 -185 c0 -5 -5 -10 -11 -10 -5 0 -7 5 -4 10 3 6 8 10
11 10 2 0 4 -4 4 -10z m-1140 -145 c0 -16 -6 -25 -15 -25 -18 0 -18 5 -5 31
14 26 20 24 20 -6z m520 -829 c0 -3 -4 -8 -10 -11 -5 -3 -10 -1 -10 4 0 6 5
11 10 11 6 0 10 -2 10 -4z m-100 -167 c0 -16 -56 -69 -72 -68 -10 0 -10 2 0 6
6 2 12 9 12 14 0 6 8 21 18 34 18 25 42 33 42 14z m-60 -83 c0 -3 -4 -8 -10
-11 -5 -3 -10 -1 -10 4 0 6 5 11 10 11 6 0 10 -2 10 -4z"/>
<path d="M16059 23118 c-12 -24 -41 -74 -66 -111 -37 -58 -40 -67 -23 -62 34
11 75 -13 129 -75 56 -65 85 -77 134 -56 45 18 82 91 72 138 -15 71 -76 133
-182 187 l-43 21 -21 -42z"/>
<path d="M36778 23153 c6 -2 18 -2 25 0 6 3 1 5 -13 5 -14 0 -19 -2 -12 -5z"/>
<path d="M36728 23143 c7 -3 16 -2 19 1 4 3 -2 6 -13 5 -11 0 -14 -3 -6 -6z"/>
<path d="M36668 23133 c7 -3 16 -2 19 1 4 3 -2 6 -13 5 -11 0 -14 -3 -6 -6z"/>
<path d="M15765 23060 c-3 -5 -1 -10 4 -10 6 0 11 5 11 10 0 6 -2 10 -4 10 -3
0 -8 -4 -11 -10z"/>
<path d="M15742 23028 c-6 -8 -8 -18 -4 -22 4 -4 -2 -14 -12 -22 -11 -8 -15
-14 -8 -14 15 0 45 46 40 61 -3 8 -8 7 -16 -3z"/>
<path d="M15655 22921 c-3 -5 -2 -12 3 -15 5 -3 9 1 9 9 0 17 -3 19 -12 6z"/>
<path d="M35415 21789 c-4 -12 -2 -26 5 -33 8 -8 9 -6 4 8 -5 13 -1 23 11 32
16 12 16 14 3 14 -9 0 -20 -9 -23 -21z"/>
<path d="M35382 21739 c-7 -11 -11 -23 -9 -25 7 -7 29 24 25 36 -2 6 -9 1 -16
-11z"/>
<path d="M35342 21687 c-5 -7 -17 -28 -26 -47 -14 -28 -14 -31 -2 -16 9 11 26
27 40 35 19 13 21 18 11 28 -10 10 -15 10 -23 0z"/>
<path d="M35270 21579 c-11 -19 -10 -20 9 -9 22 11 29 30 11 30 -5 0 -14 -9
-20 -21z"/>
<path d="M35225 21520 c-3 -6 1 -7 9 -4 18 7 21 14 7 14 -6 0 -13 -4 -16 -10z"/>
<path d="M34855 21105 c11 -9 29 -21 40 -26 l20 -10 -20 16 c-11 9 -29 21 -40
26 l-20 10 20 -16z"/>
<path d="M34615 21011 c-3 -5 -2 -12 3 -15 5 -3 9 1 9 9 0 17 -3 19 -12 6z"/>
<path d="M20968 20313 c7 -3 16 -2 19 1 4 3 -2 6 -13 5 -11 0 -14 -3 -6 -6z"/>
<path d="M20755 20243 c-16 -24 -16 -26 -2 -14 12 9 21 10 30 3 7 -6 21 -6 36
-1 28 11 20 24 -20 34 -21 5 -29 1 -44 -22z"/>
<path d="M25032 20203 c-45 -22 -100 -89 -108 -130 -14 -75 9 -140 83 -235 73
-93 297 -268 343 -268 39 0 52 28 45 94 -23 202 -82 391 -153 483 -28 38 -87
77 -105 70 -7 -4 -6 -6 4 -6 21 -1 82 -69 107 -118 45 -87 102 -316 102 -405
l0 -39 -77 53 c-99 67 -254 219 -283 278 -29 55 -31 124 -6 163 10 15 37 39
60 52 46 28 38 33 -12 8z"/>
<path d="M23975 20084 c-197 -226 -277 -418 -212 -515 30 -46 98 -79 162 -79
99 0 166 67 202 200 14 51 18 102 17 240 0 202 -8 233 -61 238 -28 3 -39 -5
-108 -84z m121 20 c3 -30 4 -121 2 -202 -4 -118 -9 -158 -27 -203 -40 -105
-116 -148 -206 -116 -118 42 -102 179 43 382 55 78 159 195 172 195 5 0 12
-25 16 -56z"/>
<path d="M27598 20043 c7 -3 16 -2 19 1 4 3 -2 6 -13 5 -11 0 -14 -3 -6 -6z"/>
<path d="M27534 20030 c-56 -23 -100 -118 -91 -198 10 -92 90 -157 242 -198
65 -17 344 -31 389 -20 32 8 48 43 33 71 -17 33 -147 164 -227 228 -77 62
-199 127 -235 127 -11 -1 3 -8 30 -18 75 -26 168 -94 288 -211 91 -88 105
-106 91 -114 -20 -11 -237 -1 -322 14 -134 25 -223 80 -242 148 -17 65 19 148
75 171 12 6 14 9 5 9 -8 0 -24 -4 -36 -9z"/>
<path d="M23048 19993 c7 -3 16 -2 19 1 4 3 -2 6 -13 5 -11 0 -14 -3 -6 -6z"/>
<path d="M22970 19968 c-69 -48 -98 -159 -62 -240 47 -108 231 -179 497 -195
97 -5 113 -4 128 11 9 10 17 23 17 30 0 40 -192 259 -289 331 -59 42 -143 85
-167 85 -11 -1 -1 -7 20 -15 59 -21 141 -81 225 -166 85 -84 167 -186 158
-195 -8 -9 -218 14 -293 31 -150 34 -244 92 -263 161 -17 63 25 157 79 177 13
5 13 6 -1 6 -9 1 -31 -9 -49 -21z"/>
<path d="M22570 19629 c-36 -14 -79 -58 -102 -103 -27 -53 -22 -139 13 -191
52 -78 221 -179 401 -239 89 -30 120 -32 143 -10 21 21 16 44 -40 161 -132
280 -295 430 -415 382z m103 -13 c46 -19 122 -98 180 -186 46 -72 116 -209
132 -258 8 -28 11 -29 -144 29 -315 117 -427 270 -291 393 43 39 71 44 123 22z"/>
<path d="M26625 19603 c-111 -58 -142 -161 -86 -280 36 -75 159 -208 274 -294
91 -69 119 -79 148 -53 18 16 19 26 14 84 -17 183 -64 360 -119 454 -30 51
-97 106 -130 106 -16 0 -13 -4 14 -18 52 -26 93 -88 127 -193 35 -105 66 -275
61 -331 l-3 -37 -72 55 c-213 161 -324 315 -293 408 12 37 63 90 100 105 14 5
18 10 10 10 -8 0 -28 -7 -45 -16z"/>
<path d="M22065 19517 c-14 -21 -14 -32 1 -107 23 -122 79 -286 124 -362 95
-158 206 -191 310 -90 103 100 85 212 -57 356 -93 93 -292 226 -340 226 -13 0
-29 -10 -38 -23z m109 -22 c155 -93 285 -208 322 -282 25 -51 25 -121 0 -154
-103 -134 -225 -72 -314 159 -45 116 -92 312 -74 312 4 0 34 -16 66 -35z"/>
<path d="M34977 19350 c-3 -19 -9 -63 -12 -96 -6 -61 -5 -62 23 -72 l28 -10
-13 92 c-18 123 -19 126 -26 86z"/>
<path d="M29930 19347 c0 -7 15 -80 34 -163 58 -251 146 -729 146 -792 0 -8
-24 0 -67 22 -117 58 -367 126 -414 111 -37 -12 -44 -47 -19 -96 80 -156 258
-363 351 -407 52 -25 118 -28 158 -7 l28 14 7 -76 c8 -95 8 -580 0 -610 -5
-19 -14 -9 -58 62 -135 224 -273 303 -380 221 -74 -56 -103 -149 -72 -231 36
-92 197 -203 401 -273 89 -31 90 -33 67 -128 -7 -32 -6 -41 4 -41 7 0 10 5 7
11 -4 6 0 6 8 -1 11 -9 108 -12 380 -12 200 0 374 2 386 5 11 3 23 14 26 24 4
17 18 19 150 22 79 2 151 2 160 0 40 -8 -126 -375 -258 -572 -182 -272 -398
-501 -712 -753 -60 -48 -77 -67 -66 -71 9 -4 23 0 33 9 22 20 40 19 56 -2 13
-17 13 -17 14 0 0 9 4 17 10 17 5 0 9 -3 9 -7 -1 -5 -1 -29 0 -55 l1 -48 164
0 163 0 -3 33 c-3 21 -1 27 5 18 5 -8 7 -21 4 -29 -4 -9 0 -13 12 -11 10 2 20
10 23 18 3 9 0 11 -8 6 -9 -6 -9 -2 0 16 19 36 20 35 16 -2 -2 -19 -4 -40 -5
-47 0 -7 -5 -11 -9 -8 -5 3 -9 -7 -9 -22 0 -39 -85 -266 -159 -422 l-64 -135
61 64 c106 111 209 292 254 448 l22 76 66 -2 67 -2 0 38 0 39 103 -2 c79 -2
101 -5 100 -16 -2 -7 -12 -53 -23 -103 -20 -90 -25 -218 -10 -265 6 -23 10
-19 39 45 43 93 61 172 62 275 0 47 3 79 6 73 3 -9 31 -13 89 -13 65 0 82 3
78 13 -3 8 1 19 8 25 11 8 13 3 10 -29 -2 -21 -7 -37 -12 -34 -4 2 -5 -6 -3
-18 2 -12 -5 -64 -15 -114 -11 -51 -16 -93 -12 -93 24 0 116 159 133 230 6 25
6 25 113 22 85 -3 105 -1 98 10 -4 7 -3 10 1 5 5 -4 10 -18 12 -30 3 -18 1
-19 -8 -7 -9 13 -10 12 -5 -3 3 -10 6 -23 6 -28 0 -5 5 -9 12 -9 6 0 9 3 5 6
-8 8 18 34 35 34 11 0 11 2 0 9 -10 6 -6 15 18 39 26 27 34 30 50 20 16 -10
23 -8 42 13 54 58 99 119 148 199 50 84 51 84 44 41 -6 -40 -6 -43 12 -33 61
33 107 116 107 192 -1 68 -19 122 -35 100 -8 -12 -9 -12 -4 2 16 53 28 205 23
305 -6 115 -42 312 -76 422 -11 34 -18 79 -16 99 1 20 1 31 -2 24 -3 -6 -9
-10 -14 -6 -14 8 -11 18 12 32 12 8 18 9 14 3 -3 -6 -3 -17 2 -23 4 -7 8 -20
8 -28 0 -11 15 -17 52 -20 34 -4 49 -2 44 5 -4 5 -8 24 -10 40 -2 17 -9 34
-17 38 -8 4 -14 13 -14 20 0 7 4 6 10 -3 17 -26 11 -6 -31 116 -135 392 -380
789 -715 1158 -120 132 -372 378 -504 491 -138 119 -152 128 -117 85 234 -296
244 -317 72 -151 -156 150 -368 329 -483 409 -110 76 -180 110 -289 137 -53
14 -106 32 -119 40 -19 12 -24 13 -24 2z m321 -531 c227 -92 349 -196 349
-297 0 -47 -42 -113 -86 -134 -53 -25 -100 -8 -167 59 -77 79 -186 273 -222
394 -9 31 3 29 126 -22z m-442 -333 c321 -82 444 -222 317 -360 -64 -70 -147
-42 -273 90 -72 76 -152 186 -192 265 l-22 43 38 -7 c21 -3 80 -17 132 -31z
m72 -861 c79 -51 158 -158 239 -323 44 -90 58 -129 47 -129 -2 0 -35 11 -73
24 -326 111 -466 244 -395 376 22 42 74 80 111 80 14 0 46 -13 71 -28z m1370
-579 c-6 -10 -11 -14 -11 -9 0 5 -6 3 -14 -3 -11 -9 -16 -9 -22 0 -4 8 -3 9 4
5 7 -4 12 -2 12 3 0 6 7 11 15 11 8 0 15 5 15 12 0 6 3 9 6 5 3 -3 1 -14 -5
-24z m790 13 c15 9 10 -2 -6 -16 -13 -10 -15 -9 -14 11 0 13 3 18 6 11 2 -6 9
-10 14 -6z m-1831 -6 c0 -5 -5 -10 -11 -10 -5 0 -7 5 -4 10 3 6 8 10 11 10 2
0 4 -4 4 -10z m1900 0 c0 -5 -2 -10 -4 -10 -3 0 -8 5 -11 10 -3 6 -1 10 4 10
6 0 11 -4 11 -10z m-286 -1396 c3 -8 2 -12 -4 -9 -6 3 -10 10 -10 16 0 14 7
11 14 -7z m-312 -38 c7 4 8 2 4 -4 -7 -11 -36 -6 -36 7 0 16 15 22 18 7 2 -9
8 -13 14 -10z m-809 7 c-13 -2 -33 -2 -45 0 -13 2 -3 4 22 4 25 0 35 -2 23 -4z
m167 -1 c0 -10 -57 -9 -67 1 -3 4 10 7 30 7 21 0 37 -4 37 -8z m267 -7 c0 -8
-4 -12 -9 -9 -5 3 -6 10 -3 15 9 13 12 11 12 -6z m-464 -32 c-3 -7 -6 -13 -8
-13 -2 0 -5 6 -8 13 -3 8 1 14 8 14 7 0 11 -6 8 -14z"/>
<path d="M24346 19234 c-20 -20 -20 -22 4 -122 46 -191 140 -378 223 -446 34
-27 46 -31 101 -31 53 0 68 4 98 27 86 65 108 170 56 258 -55 94 -201 211
-365 294 -81 40 -95 43 -117 20z m123 -35 c164 -90 296 -200 326 -273 33 -79
6 -161 -67 -200 -78 -42 -164 19 -237 168 -62 124 -129 346 -106 346 5 0 42
-19 84 -41z"/>
<path d="M21640 19171 c-15 -29 -13 -41 21 -148 38 -118 106 -259 161 -331 94
-126 213 -148 299 -55 89 95 77 207 -33 316 -65 65 -142 116 -276 184 -110 57
-155 65 -172 34z m114 -20 c158 -71 298 -172 347 -249 22 -34 29 -58 29 -94 0
-43 -5 -54 -41 -93 -22 -24 -53 -47 -69 -50 -62 -14 -147 57 -216 181 -54 96
-139 334 -120 334 4 0 35 -13 70 -29z"/>
<path d="M26017 19158 c-74 -40 -197 -169 -277 -290 -98 -149 -82 -181 75
-154 253 43 440 130 491 227 18 36 18 102 0 137 -26 49 -104 113 -138 112 -7
-1 1 -7 18 -14 38 -17 82 -72 90 -113 13 -64 -52 -133 -173 -183 -144 -60
-398 -113 -378 -79 93 158 241 324 325 363 30 14 48 26 40 26 -8 0 -41 -15
-73 -32z"/>
<path d="M12744 19019 c-229 -132 -427 -269 -681 -472 -104 -83 -124 -107 -88
-107 30 0 107 -41 148 -80 68 -62 94 -132 111 -291 15 -144 19 -159 48 -201
14 -20 28 -28 48 -28 16 0 31 4 34 8 3 5 -8 34 -25 66 -76 144 -22 268 128
291 76 11 146 -17 211 -84 306 -313 299 -304 327 -407 2 -6 22 -14 46 -18 35
-6 48 -3 78 18 110 75 221 57 304 -49 l40 -52 131 -27 c72 -15 139 -30 149
-32 15 -5 17 2 17 58 0 130 47 244 136 328 29 28 47 50 40 50 -7 0 -45 16 -83
35 -155 78 -254 220 -313 450 l-18 70 -55 7 c-115 15 -217 66 -289 146 -24 27
-47 42 -74 46 -131 25 -229 122 -265 263 l-15 63 -90 -51z"/>
<path d="M20906 19029 c-131 -19 -272 -70 -322 -115 -77 -71 -72 -186 13 -266
121 -115 316 -30 549 241 65 75 79 112 52 139 -14 14 -199 15 -292 1z m254 -7
c0 -5 -44 -55 -97 -111 -200 -212 -349 -275 -435 -184 -125 134 -13 248 288
292 78 11 244 13 244 3z"/>
<path d="M23530 18971 c-23 -12 -44 -36 -62 -71 -66 -124 -17 -232 137 -300
98 -44 274 -80 396 -80 106 0 115 30 38 133 -142 189 -328 339 -418 337 -9 -1
7 -9 35 -18 28 -10 73 -34 100 -54 98 -72 298 -297 280 -315 -10 -10 -207 16
-293 37 -195 50 -282 131 -254 237 15 54 45 91 84 102 21 6 25 10 12 10 -11 1
-36 -7 -55 -18z"/>
<path d="M28990 18876 c-87 -26 -192 -78 -303 -148 -121 -78 -116 -120 21
-157 220 -59 424 -67 518 -20 27 13 59 39 71 58 44 65 22 182 -43 242 -60 54
-142 62 -264 25z m210 -9 c45 -29 71 -77 72 -126 0 -49 -21 -85 -65 -108 -42
-22 -213 -30 -316 -13 -77 12 -217 47 -234 57 -11 7 102 81 198 131 157 80
283 102 345 59z"/>
<path d="M27812 18758 c-25 -25 -12 -65 51 -154 75 -106 192 -228 266 -277 30
-20 78 -42 107 -48 48 -11 56 -10 101 12 88 44 129 170 83 258 -26 52 -70 87
-158 128 -72 34 -262 83 -312 82 -14 0 25 -11 85 -23 286 -61 392 -149 346
-288 -16 -48 -63 -88 -104 -88 -18 0 -57 12 -87 26 -68 31 -221 184 -298 296
l-52 77 37 4 c37 3 36 4 -7 5 -26 1 -51 -3 -58 -10z"/>
<path d="M33525 18656 c-76 -21 -205 -83 -205 -98 0 -7 14 -21 30 -30 28 -16
30 -21 24 -55 -7 -48 18 -74 101 -103 83 -29 95 -42 95 -107 0 -66 14 -74 79
-49 70 27 108 30 149 12 36 -16 41 -16 158 13 210 53 457 73 652 53 40 -5 75
-5 78 -1 11 19 -11 95 -37 123 l-27 31 -209 6 c-247 8 -301 20 -463 106 -212
113 -198 108 -290 110 -50 2 -106 -3 -135 -11z"/>
<path d="M26492 18511 c-20 -12 -90 -183 -118 -285 -30 -109 -41 -244 -25
-303 25 -90 105 -134 208 -113 146 31 187 175 117 416 -27 94 -106 273 -127
286 -16 10 -39 10 -55 -1z m76 -93 c109 -250 124 -411 47 -487 -29 -30 -42
-35 -92 -39 -52 -4 -63 -1 -90 22 -63 53 -65 182 -6 371 32 103 83 225 93 225
4 0 26 -42 48 -92z"/>
<path d="M41324 18468 c-111 -113 -369 -237 -682 -327 -432 -124 -998 -200
-1722 -232 -434 -19 -1407 -4 -1718 26 l-63 7 31 -48 c16 -26 30 -53 30 -58 0
-6 22 -30 49 -53 29 -26 56 -60 67 -87 17 -41 23 -46 59 -51 222 -28 1270 -39
1620 -17 336 22 377 23 370 11 -4 -6 0 -9 11 -7 11 2 22 10 26 18 5 10 7 6 5
-10 -1 -16 3 -24 11 -22 8 1 11 -2 7 -8 -3 -6 -12 -7 -18 -3 -19 12 -49 14
-42 3 3 -5 -1 -10 -9 -10 -9 0 -16 -8 -16 -17 0 -14 -3 -14 -12 -5 -10 10 -10
15 1 22 18 10 24 43 8 37 -7 -3 -11 -10 -9 -16 1 -7 -2 -10 -6 -7 -12 7 -22
-52 -22 -127 l0 -59 38 6 c20 3 114 17 207 31 94 14 178 28 188 31 15 5 17 -2
17 -55 0 -55 -2 -61 -22 -66 -40 -10 -422 -85 -448 -89 -14 -1 -33 -4 -42 -4
-14 -2 -18 -11 -18 -43 0 -28 -4 -39 -12 -36 -7 2 -12 10 -10 16 1 7 -1 10 -6
7 -12 -7 -14 -76 -2 -76 13 0 13 -34 1 -58 -5 -9 -13 -26 -17 -37 -7 -16 -9
-12 -12 19 -2 24 1 42 10 47 7 4 9 11 5 15 -9 10 -36 -26 -37 -48 0 -9 -4 -20
-10 -23 -5 -3 -10 -17 -10 -30 0 -28 -20 -75 -32 -75 -4 0 -8 -7 -8 -15 0 -9
-7 -30 -16 -47 -15 -29 -15 -34 0 -59 20 -34 20 -39 1 -39 -8 0 -15 7 -15 15
0 30 -18 14 -23 -21 -3 -20 -14 -42 -24 -50 -15 -11 -16 -15 -4 -23 11 -7 8
-15 -19 -39 -18 -17 -30 -35 -26 -40 3 -5 -2 -9 -12 -8 -12 1 -17 -6 -16 -22
1 -13 -3 -21 -10 -19 -6 2 -10 11 -10 20 1 8 -4 13 -10 11 -6 -2 -36 14 -66
37 -30 23 -69 48 -87 57 -31 15 -34 14 -70 -10 -102 -68 -187 -201 -218 -343
-28 -123 -17 -350 28 -590 53 -284 61 -355 53 -485 -3 -64 -8 -125 -10 -135
-2 -11 -7 -58 -11 -105 -3 -47 -8 -96 -10 -110 -2 -14 -9 -70 -15 -125 -13
-113 -48 -212 -106 -303 -21 -31 -37 -65 -36 -75 2 -30 44 -150 57 -163 6 -7
27 -36 45 -65 37 -56 52 -148 32 -186 -9 -15 -6 -41 9 -104 11 -46 33 -145 48
-219 l28 -135 329 2 c181 1 340 5 353 8 24 6 24 6 17 -52 -3 -32 -13 -63 -20
-68 -14 -11 -278 -45 -506 -66 -63 -6 -117 -12 -118 -14 -2 -2 3 -26 12 -53
13 -39 24 -53 47 -63 17 -7 47 -23 67 -37 l36 -24 231 11 c681 34 1225 120
1595 253 l64 23 20 98 c10 54 16 100 13 103 -3 3 -65 -4 -137 -16 -72 -12
-133 -20 -135 -18 -15 15 28 27 143 40 73 9 135 18 138 21 7 7 78 393 139 757
150 899 257 1822 310 2675 15 245 35 635 35 681 0 23 -1 22 -92 -15 -51 -21
-151 -64 -221 -95 -71 -31 -133 -56 -138 -56 -5 0 -9 13 -9 30 0 28 4 30 73
50 128 38 331 101 360 112 26 10 27 13 27 84 0 68 2 75 23 84 12 5 76 30 142
56 119 45 382 171 419 199 11 8 17 17 15 20 -3 2 -102 51 -221 109 l-216 104
-38 -40z m-2191 -1528 c-4 -17 -23 -29 -23 -16 0 2 -3 11 -6 20 -4 11 0 16 14
16 15 0 19 -5 15 -20z m-135 -312 c-6 -18 -28 -21 -28 -4 0 9 7 16 16 16 9 0
14 -5 12 -12z m-49 -39 c-13 -25 -14 -24 -14 10 -1 23 2 28 12 19 9 -7 10 -15
2 -29z m16 -47 c-3 -3 -11 0 -18 7 -9 10 -8 11 6 5 10 -3 15 -9 12 -12z m29
-8 c-1 -14 -5 -28 -8 -31 -4 -4 -2 45 3 55 5 10 8 -3 5 -24z"/>
<path d="M23009 18432 c-69 -28 -125 -71 -215 -163 -100 -104 -174 -203 -174
-235 0 -45 35 -56 146 -44 124 14 281 51 357 84 183 82 214 226 74 340 -47 38
-120 45 -188 18z m151 -8 c35 -21 80 -90 80 -124 0 -67 -68 -123 -208 -170
-119 -39 -362 -75 -362 -52 0 17 108 149 182 222 123 123 234 167 308 124z"/>
<path d="M19533 18308 c-207 -242 -397 -512 -499 -709 -36 -69 -54 -92 -54
-67 0 20 -32 -38 -79 -140 -56 -126 -135 -358 -116 -342 18 15 19 4 3 -40 -10
-30 -12 -32 -19 -14 -7 18 -8 17 -8 -3 -1 -13 4 -23 9 -23 6 0 10 -5 10 -11 0
-5 -3 -8 -7 -6 -5 3 -8 -7 -9 -21 0 -15 -8 -83 -17 -150 -49 -358 17 -840 146
-1062 62 -107 107 -166 107 -140 0 7 6 8 15 2 26 -14 123 2 140 24 12 15 14
15 9 2 -4 -11 3 -26 18 -41 35 -35 25 -57 -25 -57 -23 0 -37 4 -32 8 6 4 11
21 12 37 2 25 1 27 -7 10 -5 -11 -9 -14 -9 -7 -1 9 -16 12 -50 11 -43 -2 -49
-5 -45 -22 5 -28 23 -46 44 -44 10 1 16 5 14 9 -7 11 20 10 31 -1 6 -5 30 -11
55 -12 40 -3 45 -1 42 16 -2 18 -2 19 8 2 6 -9 8 -22 4 -29 -4 -6 -3 -8 4 -4
6 3 16 -2 22 -11 10 -16 11 -16 7 5 -3 12 -1 22 5 22 6 0 8 6 5 14 -3 8 -1 17
6 19 9 3 9 8 0 18 -10 10 -13 10 -13 0 0 -7 -4 -9 -10 -6 -18 11 -11 24 11 20
13 -3 19 0 16 8 -2 7 -9 12 -16 12 -14 0 -32 26 -25 37 10 16 22 7 17 -12 -4
-15 -2 -19 10 -14 10 3 13 12 9 22 -5 15 -4 15 12 3 12 -10 14 -16 5 -21 -7
-5 -8 -10 -1 -14 20 -12 19 9 -3 164 -31 213 -45 411 -45 649 l0 201 -31 62
c-30 62 -109 246 -109 255 0 2 5 1 10 -2 6 -3 10 -1 10 4 0 6 -7 11 -15 11
-21 0 -19 20 3 21 48 3 98 -4 104 -14 6 -9 8 -8 8 1 0 9 7 11 20 7 15 -5 21 0
26 20 3 14 4 37 1 52 -3 15 -1 34 3 42 5 9 20 88 34 176 51 316 148 692 260
1006 30 85 53 155 51 157 -1 2 -38 -39 -82 -90z m-446 -1340 c-3 -8 -6 -5 -6
6 -1 11 2 17 5 13 3 -3 4 -12 1 -19z m33 -1428 c0 -5 -18 -10 -40 -10 -22 0
-40 5 -40 10 0 6 18 10 40 10 22 0 40 -4 40 -10z"/>
<path d="M20556 18235 c-38 -39 -79 -250 -80 -410 0 -144 13 -193 63 -248 34
-36 44 -41 94 -45 88 -7 162 30 197 98 47 93 15 244 -93 433 -96 170 -141 212
-181 172z m86 -72 c89 -137 137 -240 159 -343 21 -100 -21 -176 -113 -201
-160 -43 -213 179 -126 529 11 45 24 82 28 82 5 0 28 -30 52 -67z"/>
<path d="M22522 18203 c25 -4 27 -6 17 -26 -28 -52 -153 -209 -210 -261 -126
-117 -231 -137 -302 -58 -29 32 -47 92 -35 122 27 72 115 125 293 176 44 12
73 23 64 23 -33 2 -191 -50 -257 -83 -72 -36 -137 -99 -148 -141 -17 -70 25
-164 93 -206 107 -66 247 -6 397 169 79 91 166 219 166 242 0 27 -34 50 -71
49 -30 -2 -31 -2 -7 -6z"/>
<path d="M34965 18178 c-3 -18 -11 -84 -19 -146 -8 -63 -16 -115 -18 -116 -1
-2 -84 -6 -183 -10 -217 -8 -396 -25 -697 -68 -224 -32 -227 -33 -231 -58 -3
-14 -1 -27 5 -29 26 -9 78 -66 90 -97 6 -19 16 -34 21 -34 5 0 48 40 95 88
123 126 201 157 289 115 38 -18 73 -65 73 -99 0 -17 8 -23 34 -28 40 -8 96
-65 96 -99 1 -14 14 -30 38 -45 40 -26 40 -26 83 38 l15 23 50 -27 c27 -14 79
-49 115 -76 79 -59 234 -220 222 -230 -4 -4 -53 -17 -108 -30 -55 -12 -107
-26 -115 -31 -11 -6 -35 12 -91 68 l-77 76 -20 -47 c-12 -25 -54 -81 -95 -124
-41 -43 -82 -92 -91 -110 -36 -69 -15 -139 49 -171 43 -21 74 0 109 76 43 91
101 106 154 38 31 -39 34 -72 17 -176 -8 -51 -15 -121 -15 -154 0 -62 -23
-129 -53 -153 -9 -7 -28 -17 -44 -21 -40 -10 -41 -41 -3 -79 30 -30 48 -38
148 -62 91 -23 106 -66 68 -197 -15 -52 -25 -100 -23 -107 4 -9 15 -12 32 -9
36 8 65 -21 65 -65 0 -20 -12 -64 -26 -100 -27 -67 -26 -98 2 -126 26 -27 40
-19 93 53 120 162 242 225 368 191 39 -11 63 -28 129 -96 51 -51 92 -104 109
-139 25 -50 27 -63 22 -128 -7 -82 -22 -61 145 -199 92 -76 108 -98 86 -125
-7 -10 -8 -14 -1 -10 7 5 25 -18 49 -60 20 -38 46 -81 57 -97 l20 -28 -21 -44
c-24 -49 -16 -49 -126 0 -75 33 -164 87 -245 148 -36 27 -68 45 -71 41 -4 -5
-12 -23 -18 -41 -10 -28 -7 -41 18 -98 34 -76 36 -87 14 -104 -18 -15 -59 -85
-68 -116 -6 -20 -2 -21 86 -27 200 -12 298 -82 298 -212 0 -43 -5 -51 -56
-105 -69 -73 -70 -97 -4 -120 60 -21 72 -46 65 -136 -5 -52 -2 -81 8 -107 15
-34 47 -55 66 -42 17 10 33 -35 27 -71 -5 -23 -20 -45 -53 -71 -126 -104 -138
-125 -108 -183 44 -85 172 -76 221 15 21 40 23 40 130 -11 286 -135 435 -413
369 -692 -16 -66 -54 -149 -80 -176 -20 -20 -57 -21 -93 -2 -53 27 -70 28 -91
7 -14 -14 -21 -34 -21 -57 0 -32 9 -45 79 -113 69 -67 82 -85 96 -136 12 -41
16 -77 12 -120 l-6 -62 67 -12 c37 -6 104 -23 149 -37 82 -26 84 -28 151 -108
77 -91 154 -155 226 -187 l48 -21 24 23 24 23 35 -34 34 -33 -60 -78 c-33 -44
-63 -79 -66 -79 -3 0 -83 38 -177 84 -94 47 -204 99 -245 116 l-74 30 7 -46
c3 -26 6 -77 6 -114 l0 -67 45 -13 c78 -22 129 -62 160 -124 22 -46 26 -64 21
-97 -9 -59 -20 -74 -81 -119 -35 -26 -57 -50 -61 -68 -29 -129 -51 -154 -175
-196 -97 -34 -133 -56 -154 -96 -22 -43 -19 -76 11 -99 32 -25 52 -26 82 -5
22 15 25 15 49 -7 42 -40 56 -76 51 -140 -3 -44 -1 -56 9 -52 20 8 62 -24 74
-55 14 -35 -1 -84 -46 -160 -32 -53 -54 -117 -43 -127 3 -3 29 8 59 25 64 35
111 38 140 9 19 -19 20 -28 14 -84 -6 -56 -4 -66 14 -84 12 -12 32 -21 45 -21
29 0 56 -24 56 -49 0 -10 -7 -38 -15 -62 -20 -57 -8 -92 59 -172 64 -76 76
-97 76 -137 0 -33 -37 -80 -64 -80 -13 0 -13 -3 0 -27 34 -66 -2 -193 -52
-185 -66 12 -104 -11 -104 -63 0 -65 60 -108 165 -120 89 -10 158 -32 182 -57
11 -13 29 -43 40 -68 11 -25 30 -54 42 -64 25 -23 26 -19 5 33 -9 22 -14 44
-12 49 1 5 57 46 123 90 66 44 169 120 229 169 l109 88 50 -48 c59 -56 59 -56
-30 -155 -92 -104 -220 -192 -345 -237 l-60 -22 26 -16 c30 -20 52 -58 61
-109 l7 -36 68 29 c38 16 99 36 136 45 93 21 138 47 172 96 55 80 65 125 92
398 12 113 25 232 29 265 10 71 -1 175 -24 230 -10 22 -37 74 -61 116 -55 97
-71 157 -56 208 6 20 39 79 72 130 33 52 74 131 92 175 29 72 33 92 33 181 0
82 -4 109 -22 147 -28 61 -90 128 -181 196 -72 53 -132 127 -132 164 0 45 134
150 242 189 l57 21 -16 25 c-27 41 -19 99 29 223 54 136 63 183 48 239 -8 31
-281 503 -309 533 -3 4 -35 0 -70 -8 -35 -8 -66 -13 -68 -10 -3 3 3 27 12 55
l17 51 55 0 c52 0 59 3 94 39 82 87 90 227 25 449 l-36 123 30 37 c40 50 50
89 50 195 0 238 -91 446 -281 643 -100 104 -102 108 -69 213 25 80 16 125 -35
170 -41 36 -99 42 -149 16 -16 -9 -30 -14 -30 -13 -59 122 -70 178 -57 271 18
131 15 199 -11 237 -25 36 -95 96 -103 89 -2 -3 0 -32 5 -65 32 -195 -9 -444
-105 -641 0 -1 -38 9 -84 23 l-83 26 6 47 c26 180 36 280 46 448 6 106 8 203
4 217 -6 24 -3 26 24 26 24 0 30 5 35 28 3 15 24 52 47 82 71 94 85 127 84
205 0 55 -7 85 -30 141 -62 145 -196 311 -292 362 -71 38 -92 63 -92 110 0 52
25 99 85 157 65 64 67 78 24 163 -44 89 -135 163 -223 182 -24 4 -36 17 -60
65 -38 74 -102 138 -161 161 -43 16 -46 16 -65 -1 -10 -9 -38 -55 -60 -101
l-42 -83 -51 20 c-318 123 -613 381 -778 681 l-37 67 98 71 c54 38 100 70 102
70 2 0 66 -62 143 -138 128 -124 227 -212 444 -391 l73 -61 34 30 c19 16 46
33 59 36 30 7 30 9 6 42 -34 50 -60 108 -87 203 -33 117 -62 174 -111 221 -86
83 -191 90 -224 15 -16 -37 -75 -62 -121 -52 -77 17 -126 113 -115 226 l5 58
-31 -7 c-18 -4 -66 -7 -109 -6 -100 1 -187 41 -250 116 -69 81 -105 118 -117
118 -5 0 -13 -15 -16 -32z m1708 -3744 c76 -68 202 -175 280 -238 78 -63 165
-134 192 -157 28 -23 74 -55 102 -71 34 -19 50 -34 45 -41 -4 -7 -28 -44 -54
-84 -26 -39 -60 -99 -74 -132 -23 -53 -30 -61 -48 -55 -41 13 -216 92 -261
118 l-45 27 -1 102 c0 56 -2 122 -5 147 -6 60 -15 129 -20 160 -3 14 -6 31 -6
38 -1 6 -5 12 -10 12 -4 0 -8 5 -8 11 0 11 -89 131 -144 193 l-34 39 -118 -1
c-66 0 -173 -4 -239 -7 l-120 -7 -37 70 -37 69 130 91 130 91 122 -126 c67
-69 184 -181 260 -249z m961 -2555 c26 -39 46 -74 44 -78 -2 -4 -41 -42 -88
-83 -47 -42 -134 -131 -194 -198 -102 -113 -111 -120 -118 -99 -5 13 -12 26
-17 29 -4 3 -13 20 -20 38 -10 22 -19 31 -30 28 -32 -10 -114 -27 -116 -24 -2
2 17 33 41 70 54 83 173 210 254 269 44 32 183 117 196 119 1 0 22 -32 48 -71z
m25 -667 c-36 -68 -270 -272 -313 -272 -4 0 -6 47 -5 105 l1 105 116 92 115
93 50 -48 c48 -46 50 -49 36 -75z m-713 -533 c27 -11 60 -25 74 -31 14 -6 30
-11 37 -9 6 1 44 -65 84 -146 39 -81 81 -161 92 -177 14 -19 17 -31 10 -33 -7
-3 -32 -20 -57 -39 -25 -19 -49 -34 -54 -34 -11 0 -76 77 -121 143 -44 64 -86
159 -111 249 -31 111 -31 110 46 77z"/>
<path d="M36417 14599 c4 -13 8 -18 11 -10 2 7 -1 18 -6 23 -8 8 -9 4 -5 -13z"/>
<path d="M36785 14250 c-3 -5 -1 -10 4 -10 6 0 11 5 11 10 0 6 -2 10 -4 10 -3
0 -8 -4 -11 -10z"/>
<path d="M36799 14221 c7 -5 9 -11 5 -13 -5 -3 -3 -3 5 -1 9 2 11 -2 7 -13 -5
-14 -4 -15 9 -4 8 7 16 9 16 4 1 -5 2 -16 3 -24 0 -8 9 -14 19 -14 9 1 25 -11
34 -27 10 -16 23 -29 29 -29 7 0 15 -7 18 -16 3 -8 10 -12 16 -9 6 3 13 -1 16
-9 3 -9 10 -14 14 -11 4 3 13 -2 20 -10 7 -8 18 -15 24 -15 7 0 6 4 -2 9 -8 4
-13 11 -13 15 3 22 -1 27 -19 21 -14 -5 -20 -2 -20 10 0 8 -7 18 -15 21 -8 4
-15 12 -15 20 0 8 -6 14 -14 14 -8 0 -21 9 -28 19 -10 14 -18 17 -28 10 -24
-14 -31 -10 -20 11 8 16 8 20 -2 18 -7 -2 -12 2 -11 9 2 7 -4 10 -12 7 -8 -4
-15 -1 -15 5 0 6 -8 11 -17 11 -14 0 -15 -2 -4 -9z m134 -104 c-6 -10 -21 0
-34 25 -11 20 -11 20 14 2 14 -11 23 -22 20 -27z"/>
<path d="M37057 14023 c-11 -10 13 -32 28 -26 12 4 12 7 0 19 -15 16 -19 17
-28 7z"/>
<path d="M37115 13990 c-3 -5 -1 -10 4 -10 6 0 11 5 11 10 0 6 -2 10 -4 10 -3
0 -8 -4 -11 -10z"/>
<path d="M37469 11663 c-13 -16 -12 -17 4 -4 9 7 17 15 17 17 0 8 -8 3 -21
-13z"/>
<path d="M37386 11584 c-20 -19 -20 -25 -2 -18 8 3 17 12 20 20 7 18 1 18 -18
-2z"/>
<path d="M37353 11543 c4 -3 1 -13 -6 -22 -11 -14 -10 -14 5 -2 16 12 16 31 1
31 -4 0 -3 -3 0 -7z"/>
<path d="M37311 11506 c-9 -11 -9 -16 1 -22 7 -4 10 -4 6 1 -4 4 -3 14 3 22 6
7 9 13 6 13 -2 0 -10 -6 -16 -14z"/>
<path d="M37435 11190 c-3 -5 -1 -10 4 -10 6 0 11 5 11 10 0 6 -2 10 -4 10 -3
0 -8 -4 -11 -10z"/>
<path d="M37394 11154 c-18 -14 -18 -14 6 -3 31 14 36 19 24 19 -6 0 -19 -7
-30 -16z"/>
<path d="M37105 10470 c3 -5 8 -10 11 -10 2 0 4 5 4 10 0 6 -5 10 -11 10 -5 0
-7 -4 -4 -10z"/>
<path d="M37176 10357 c3 -10 9 -15 12 -12 3 3 0 11 -7 18 -10 9 -11 8 -5 -6z"/>
<path d="M22443 18193 c9 -2 23 -2 30 0 6 3 -1 5 -18 5 -16 0 -22 -2 -12 -5z"/>
<path d="M22383 18183 c9 -2 23 -2 30 0 6 3 -1 5 -18 5 -16 0 -22 -2 -12 -5z"/>
<path d="M28323 18106 c-123 -40 -354 -176 -375 -221 -18 -40 4 -61 90 -84
286 -77 523 -63 596 36 59 80 7 238 -91 279 -48 21 -139 16 -220 -10z m233
-16 c35 -32 54 -79 54 -131 0 -51 -38 -91 -104 -108 -100 -25 -318 -8 -461 37
l-60 18 85 56 c173 113 292 160 392 156 55 -3 72 -8 94 -28z"/>
<path d="M14380 18052 l-55 -4 78 -14 c89 -16 159 -48 202 -93 17 -18 98 -138
180 -269 l151 -237 116 -35 117 -35 -2 -67 c-1 -36 0 -68 3 -70 3 -3 193 -53
423 -112 l419 -107 44 17 c55 21 106 9 160 -38 20 -18 39 -27 43 -22 46 50
101 128 94 134 -4 4 -72 35 -149 69 -513 220 -1100 518 -1580 802 -83 49 -159
88 -170 87 -10 -1 -44 -4 -74 -6z"/>
<path d="M28753 18050 c-27 -11 -37 -43 -22 -72 19 -36 95 -133 157 -199 203
-220 395 -263 468 -105 25 55 31 117 13 163 -26 69 -125 135 -258 172 -83 23
-244 45 -286 38 -23 -3 -19 -4 15 -6 25 0 86 -8 135 -16 274 -44 388 -131 349
-266 -29 -97 -108 -121 -212 -64 -100 55 -348 315 -335 353 5 14 5 14 -24 2z"/>
<path d="M36250 18046 c0 -8 -3 -21 -6 -30 -5 -14 6 -16 83 -16 118 0 170 -18
241 -85 l56 -52 62 46 c33 25 69 51 79 57 15 8 -8 14 -111 28 -71 10 -187 29
-259 42 -154 28 -145 28 -145 10z"/>
<path d="M34346 17964 c-15 -14 -14 -34 1 -34 4 0 3 3 0 7 -4 3 0 15 10 25 20
22 11 24 -11 2z"/>
<path d="M34392 17972 c2 -8 6 -12 8 -11 3 1 15 -3 28 -10 14 -7 22 -8 22 -1
0 5 5 10 11 10 5 0 8 -4 5 -9 -7 -10 20 -9 30 2 4 4 17 7 28 8 21 0 21 1 1 8
-11 5 -22 6 -25 2 -9 -10 -95 -8 -103 3 -6 7 -7 6 -5 -2z"/>
<path d="M34241 17954 c0 -11 3 -14 6 -6 3 7 2 16 -1 19 -3 4 -6 -2 -5 -13z"/>
<path d="M34555 17959 c-3 -4 2 -6 10 -5 21 3 28 13 10 13 -9 0 -18 -4 -20 -8z"/>
<path d="M34630 17958 c0 -4 4 -8 9 -8 6 0 12 4 15 8 3 5 -1 9 -9 9 -8 0 -15
-4 -15 -9z"/>
<path d="M34676 17958 c3 -5 10 -6 15 -3 13 9 11 12 -6 12 -8 0 -12 -4 -9 -9z"/>
<path d="M34170 17950 c0 -5 7 -7 15 -4 8 4 15 8 15 10 0 2 -7 4 -15 4 -8 0
-15 -4 -15 -10z"/>
<path d="M25538 17930 c-89 -47 -124 -148 -115 -335 5 -118 39 -308 59 -332 6
-7 23 -13 38 -13 23 0 37 12 78 68 201 271 260 528 140 602 -46 28 -54 25 -17
-8 24 -21 32 -38 36 -75 8 -64 -33 -189 -99 -303 -55 -96 -124 -194 -137 -194
-23 0 -65 296 -56 395 11 113 46 177 110 200 22 8 31 14 20 14 -11 0 -37 -9
-57 -19z"/>
<path d="M25648 17943 c6 -2 18 -2 25 0 6 3 1 5 -13 5 -14 0 -19 -2 -12 -5z"/>
<path d="M34140 17933 c29 -20 50 -25 50 -12 0 5 -9 9 -19 9 -11 0 -23 5 -26
10 -3 6 -11 10 -18 10 -6 0 0 -8 13 -17z"/>
<path d="M34037 17933 c-4 -7 -2 -15 5 -19 18 -12 88 -12 95 0 3 5 1 6 -5 2
-5 -3 -12 -1 -14 6 -3 8 -11 9 -24 3 -29 -13 -38 -12 -45 4 -4 10 -8 11 -12 4z"/>
<path d="M34000 17910 c6 -11 12 -20 14 -20 2 0 2 9 -1 20 -3 11 -9 20 -15 20
-5 0 -4 -9 2 -20z"/>
<path d="M33967 17908 c7 -8 10 -18 6 -21 -3 -4 -1 -7 6 -7 17 0 10 32 -9 38
-12 4 -13 3 -3 -10z"/>
<path d="M33885 17900 c-4 -6 -12 -7 -18 -4 -9 5 -9 4 -1 -5 15 -16 61 -24 69
-11 4 6 -1 7 -11 3 -12 -4 -15 -3 -10 5 5 8 1 10 -10 5 -12 -4 -15 -3 -10 5 4
7 5 12 2 12 -3 0 -8 -5 -11 -10z"/>
<path d="M23143 17783 c9 -2 25 -2 35 0 9 3 1 5 -18 5 -19 0 -27 -2 -17 -5z"/>
<path d="M23050 17742 c-28 -27 -41 -51 -50 -92 -43 -193 141 -294 504 -276
142 7 176 19 176 60 0 32 -145 168 -262 246 -78 53 -180 101 -211 99 -7 0 13
-9 43 -21 79 -29 206 -116 300 -205 69 -64 79 -78 65 -86 -10 -5 -95 -7 -199
-5 -205 5 -272 21 -333 80 -57 56 -57 146 2 205 22 22 28 33 18 33 -9 0 -32
-17 -53 -38z"/>
<path d="M35510 17602 c0 -12 22 -32 35 -32 5 0 2 5 -8 11 -9 6 -15 14 -12 20
4 5 1 9 -4 9 -6 0 -11 -4 -11 -8z"/>
<path d="M35550 17552 c0 -12 19 -26 26 -19 2 2 -2 10 -11 17 -9 8 -15 8 -15
2z"/>
<path d="M35580 17515 c0 -2 6 -8 13 -14 10 -8 14 -7 14 2 0 8 -6 14 -14 14
-7 0 -13 -1 -13 -2z"/>
<path d="M35621 17490 c-1 -8 16 -31 36 -50 21 -19 32 -28 25 -19 -6 9 -9 19
-5 22 3 4 1 7 -6 7 -7 0 -9 5 -6 10 6 9 -1 12 -22 9 -4 0 -10 8 -14 18 -6 13
-8 14 -8 3z"/>
<path d="M10295 17464 c-521 -79 -851 -279 -1029 -624 -214 -414 -179 -878 97
-1290 59 -88 171 -223 227 -274 l39 -35 55 33 c88 53 320 116 426 116 25 0 28
4 34 44 9 56 62 144 79 127 20 -20 58 -12 88 19 l30 30 -7 118 c-6 116 -6 118
18 147 32 37 78 37 140 1 63 -36 101 -35 129 7 48 70 78 74 144 17 25 -22 57
-43 71 -46 38 -10 101 2 174 32 40 16 85 27 119 27 49 1 56 -1 87 -36 23 -25
34 -47 34 -67 0 -29 2 -30 45 -30 74 0 134 -38 169 -107 16 -31 15 -33 -9 -57
-43 -43 -26 -108 32 -127 28 -9 43 -8 79 6 53 20 81 52 135 155 65 126 128
170 242 170 56 0 90 16 132 60 67 71 155 83 244 34 79 -42 126 -122 137 -231
l6 -59 107 -20 c131 -25 205 -58 270 -119 100 -93 112 -161 67 -359 -37 -161
-36 -167 37 -186 67 -17 66 -18 92 67 11 33 34 72 63 104 70 78 130 96 213 63
35 -15 45 -26 72 -83 40 -82 57 -87 107 -32 43 47 71 52 136 22 87 -40 145
-35 164 14 7 19 17 25 41 25 43 0 84 -44 103 -111 23 -77 49 -116 85 -124 35
-7 82 14 105 47 30 42 15 132 -28 167 -9 8 -16 19 -16 26 0 22 113 137 178
181 55 36 63 44 46 50 -133 48 -200 90 -274 171 -76 83 -121 188 -179 413 -62
239 -113 351 -199 438 -101 103 -210 133 -338 94 -69 -21 -107 -42 -353 -191
-192 -115 -386 -194 -592 -238 -65 -14 -126 -18 -274 -17 -175 0 -198 3 -290
28 -200 54 -406 177 -514 306 -54 66 -104 144 -201 318 -112 198 -198 285
-324 324 -197 60 -431 -68 -479 -264 -8 -35 -22 -98 -31 -140 -20 -103 -41
-144 -89 -176 -79 -52 -208 -23 -271 61 -59 79 -109 230 -109 332 -1 149 108
313 293 444 40 28 66 51 58 51 -8 0 -50 -9 -93 -20 -43 -11 -80 -18 -83 -16
-6 6 144 52 198 61 25 4 99 33 165 65 66 31 131 62 145 68 22 9 18 11 -30 10
-30 0 -95 -6 -145 -14z"/>
<path d="M11255 17460 c22 -12 63 -39 90 -60 l50 -37 190 -17 c380 -35 815
-92 1278 -167 244 -40 249 -40 285 -23 20 10 57 25 82 35 29 11 40 19 30 23
-8 3 -136 25 -285 50 -486 81 -1245 176 -1680 211 l-80 6 40 -21z"/>
<path d="M39267 17447 c-3 -8 1 -14 8 -14 7 0 11 6 8 14 -3 7 -6 13 -8 13 -2
0 -5 -6 -8 -13z"/>
<path d="M35700 17415 c0 -3 5 -15 10 -25 10 -19 40 -17 40 2 0 6 -7 5 -16 -3
-13 -11 -15 -10 -12 6 1 10 -3 20 -9 22 -7 3 -13 2 -13 -2z"/>
<path d="M24173 17395 c-47 -33 -124 -314 -126 -460 -2 -130 25 -194 95 -231
42 -22 118 -18 171 9 32 17 47 20 51 12 2 -7 23 -15 47 -18 56 -7 255 8 349
28 104 21 213 76 245 123 47 68 26 175 -45 235 -32 27 -68 43 -77 33 -4 -3 0
-6 8 -6 20 0 75 -58 88 -93 20 -53 13 -78 -32 -122 -71 -67 -258 -115 -455
-115 -89 0 -92 1 -82 20 6 10 54 63 108 117 100 101 183 164 249 188 21 7 31
14 23 14 -51 2 -198 -98 -307 -208 l-70 -71 -6 87 c-6 102 -33 188 -103 329
-45 89 -83 144 -101 144 -5 0 -18 -7 -30 -15z m97 -130 c143 -297 130 -464
-36 -491 -91 -14 -143 53 -144 184 0 89 20 192 67 337 41 128 37 129 113 -30z"/>
<path d="M34680 17388 c0 -2 9 -11 20 -21 11 -9 20 -13 20 -7 0 5 -9 14 -20
20 -11 6 -20 9 -20 8z"/>
<path d="M35765 17370 c3 -6 1 -10 -6 -10 -7 0 -10 -3 -6 -6 3 -3 13 -2 22 4
16 8 16 9 1 15 -10 4 -15 3 -11 -3z"/>
<path d="M35797 17339 c7 -7 15 -10 18 -7 3 3 -2 9 -12 12 -14 6 -15 5 -6 -5z"/>
<path d="M34774 17303 c2 -10 6 -17 10 -16 15 3 16 11 2 22 -12 10 -14 9 -12
-6z"/>
<path d="M35825 17311 c-6 -11 -5 -12 15 -15 6 0 15 -8 20 -16 5 -8 10 -10 10
-4 0 18 -37 47 -45 35z"/>
<path d="M26393 17303 c9 -2 17 -10 17 -16 0 -22 -121 -222 -173 -287 -59 -73
-131 -126 -185 -136 -71 -14 -166 65 -164 137 2 74 102 157 278 230 54 22 86
38 71 34 -16 -3 -68 -23 -117 -44 -253 -109 -340 -241 -239 -364 62 -75 159
-98 241 -56 91 47 196 172 292 350 62 116 60 160 -8 158 -17 -1 -23 -3 -13 -6z"/>
<path d="M28098 17303 c7 -3 16 -2 19 1 4 3 -2 6 -13 5 -11 0 -14 -3 -6 -6z"/>
<path d="M21549 17290 c57 -6 69 -12 97 -43 84 -92 57 -196 -59 -228 -90 -25
-314 -7 -462 38 l-59 19 69 45 c112 74 181 110 268 140 45 16 75 29 66 29 -80
1 -429 -189 -442 -241 -10 -37 30 -64 129 -87 368 -85 585 -36 584 133 -1 121
-88 207 -207 204 -46 -2 -45 -2 16 -9z"/>
<path d="M26348 17293 c7 -3 16 -2 19 1 4 3 -2 6 -13 5 -11 0 -14 -3 -6 -6z"/>
<path d="M27978 17276 c-31 -13 -76 -34 -100 -48 -123 -73 -296 -225 -283
-250 4 -7 -23 19 -61 58 -105 108 -225 194 -272 194 -8 0 13 -14 48 -31 41
-21 92 -61 150 -118 81 -80 190 -213 190 -232 0 -13 -41 -11 -155 6 -183 27
-307 75 -364 141 -31 35 -33 41 -29 96 5 62 27 104 67 124 39 20 37 26 -3 10
-53 -22 -61 -30 -91 -89 -96 -194 88 -335 490 -376 73 -8 94 -7 113 5 31 20
28 53 -13 109 -19 27 -33 50 -32 52 2 1 34 -3 72 -9 111 -17 356 -5 438 21
122 40 176 118 147 214 -22 75 -94 147 -145 147 -15 -1 -13 -4 10 -14 90 -40
122 -145 65 -210 -67 -75 -285 -104 -533 -70 l-48 7 28 30 c40 42 179 149 241
186 29 17 79 40 110 51 31 11 48 19 37 19 -11 0 -45 -10 -77 -23z"/>
<path d="M26308 17283 c7 -3 16 -2 19 1 4 3 -2 6 -13 5 -11 0 -14 -3 -6 -6z"/>
<path d="M28680 17267 c-35 -17 -43 -69 -37 -242 10 -281 74 -426 196 -442 72
-10 161 40 197 108 20 40 17 129 -7 194 -27 74 -113 192 -212 293 -97 99 -106
104 -137 89z m111 -94 c145 -150 212 -263 213 -358 1 -83 -64 -147 -151 -147
-71 0 -128 92 -152 243 -13 76 -15 349 -3 349 5 0 47 -39 93 -87z"/>
<path d="M35876 17264 c-4 -11 -2 -15 8 -11 8 3 17 1 20 -6 3 -7 5 -3 3 7 -3
25 -23 32 -31 10z"/>
<path d="M11510 17251 c0 -5 7 -14 15 -21 23 -19 98 -127 142 -206 117 -206
252 -318 453 -373 90 -25 235 -28 327 -6 76 18 175 62 240 106 58 40 274 249
268 259 -2 4 -21 10 -42 13 -21 3 -132 24 -248 47 -276 53 -680 122 -935 160
-233 34 -220 33 -220 21z"/>
<path d="M35960 17200 c0 -4 7 -11 16 -14 22 -9 26 -8 22 6 -5 13 -38 20 -38
8z"/>
<path d="M24823 17133 c9 -2 25 -2 35 0 9 3 1 5 -18 5 -19 0 -27 -2 -17 -5z"/>
<path d="M13964 17045 c30 -25 61 -53 68 -63 9 -12 48 -25 123 -41 517 -107
983 -213 1469 -333 l329 -81 70 34 69 34 -173 42 c-334 82 -946 225 -1234 288
-284 63 -763 165 -772 165 -3 0 20 -20 51 -45z"/>
<path d="M19238 16913 c7 -3 16 -2 19 1 4 3 -2 6 -13 5 -11 0 -14 -3 -6 -6z"/>
<path d="M38460 16755 c-148 -33 -338 -155 -514 -331 -84 -84 -239 -274 -252
-309 -3 -6 29 -82 71 -168 l76 -157 53 0 c120 0 211 -64 296 -210 104 -178
105 -226 7 -425 l-67 -136 23 -57 c16 -39 32 -61 50 -70 38 -18 48 -43 46
-115 -2 -68 16 -133 39 -142 20 -7 21 -5 37 57 51 193 47 567 -10 943 -57 377
-52 570 19 760 54 142 137 243 254 307 55 30 70 43 59 49 -28 16 -123 18 -187
4z"/>
<path d="M14200 16737 c0 -16 161 -324 204 -390 224 -348 561 -410 985 -181
93 50 311 194 311 205 0 10 -1456 369 -1493 369 -4 0 -7 -1 -7 -3z"/>
<path d="M16964 16344 c69 -105 68 -104 120 -119 447 -125 1405 -411 1513
-452 6 -2 -1 26 -15 65 l-27 68 -425 127 c-358 107 -1062 310 -1157 333 l-27
7 18 -29z"/>
<path d="M19597 16326 c-29 -71 -50 -209 -50 -331 0 -212 48 -390 154 -566 52
-88 107 -160 94 -124 -123 327 -172 558 -183 870 -4 99 -10 162 -15 151z"/>
<path d="M17225 15874 c149 -287 235 -402 384 -512 216 -160 446 -167 705 -21
114 65 326 212 318 221 -10 10 -1287 379 -1435 414 l-28 6 56 -108z"/>
<path d="M21351 15733 c-63 -217 -74 -298 -75 -528 0 -154 5 -234 17 -299 9
-49 18 -90 20 -92 4 -5 42 468 63 780 8 131 13 240 11 242 -2 3 -18 -44 -36
-103z"/>
<path d="M15938 15795 c-85 -16 -241 -64 -333 -102 -33 -14 -166 -76 -295
-138 -129 -62 -277 -128 -327 -146 -51 -19 -93 -36 -93 -39 0 -3 13 -13 29
-23 15 -9 51 -37 80 -63 65 -58 68 -91 16 -154 -41 -49 -41 -50 -16 -81 29
-36 74 -30 159 20 59 35 84 44 136 48 81 7 149 -15 208 -66 52 -46 117 -71
129 -50 100 175 294 229 405 114 27 -28 44 -56 48 -81 13 -67 35 -102 84 -130
108 -62 132 -112 132 -283 0 -83 5 -115 20 -148 20 -45 69 -83 108 -83 50 0
94 84 61 117 -8 8 0 19 32 40 55 36 144 40 200 7 l36 -22 17 29 c20 33 80 55
123 45 17 -5 65 -46 124 -106 107 -110 129 -120 219 -101 67 14 67 14 90 -9
13 -13 20 -33 20 -58 0 -61 22 -82 83 -82 157 0 198 -73 110 -197 -60 -84 -74
-115 -68 -147 7 -39 32 -66 62 -66 19 0 23 -5 23 -31 l0 -31 38 38 c21 22 86
66 146 99 98 54 165 109 193 159 10 18 14 17 106 -4 53 -12 105 -19 114 -17
15 4 15 5 -2 6 -20 1 -26 9 -148 198 l-66 102 25 16 c30 19 23 35 -14 35 -46
0 -170 39 -245 77 -208 104 -348 245 -587 593 -259 377 -414 536 -620 640
-130 65 -198 82 -350 86 -90 2 -161 -1 -212 -11z"/>
<path d="M20252 15756 c-70 -182 -70 -398 1 -591 l22 -60 3 178 c1 97 1 257 0
355 l-3 177 -23 -59z"/>
<path d="M29596 15635 c-4 -16 -21 -84 -38 -150 -51 -211 -134 -464 -223 -685
-24 -58 -50 -123 -59 -145 l-16 -40 36 40 c142 158 264 436 298 680 18 125 19
359 2 300z"/>
<path d="M20606 15530 c-26 -115 -19 -328 14 -388 10 -21 38 90 46 184 5 58 2
103 -10 164 -25 121 -31 126 -50 40z"/>
<path d="M30090 15549 c-75 -58 -83 -66 -53 -50 12 6 25 16 28 21 3 6 18 7 32
4 22 -6 24 -4 18 15 -4 12 -2 21 4 21 6 0 11 -4 11 -10 0 -5 6 -7 13 -4 7 2
13 16 13 29 0 14 0 25 0 24 -1 0 -30 -23 -66 -50z"/>
<path d="M19148 15570 c-5 -30 0 -50 13 -50 6 0 7 5 3 12 -5 8 -2 9 11 4 17
-6 18 -5 3 11 -8 10 -17 25 -20 33 -3 10 -6 6 -10 -10z"/>
<path d="M19290 15559 c0 -6 5 -20 12 -32 10 -20 10 -21 -5 -8 -15 12 -17 11
-17 -3 0 -11 9 -16 26 -16 21 0 24 3 15 14 -6 7 -9 20 -6 28 4 9 -1 18 -9 21
-9 4 -16 2 -16 -4z"/>
<path d="M31733 15553 c4 -3 1 -13 -6 -22 -11 -14 -10 -14 5 -2 16 12 16 31 1
31 -4 0 -3 -3 0 -7z"/>
<path d="M28331 15358 c-75 -256 -179 -573 -255 -778 -68 -182 -65 -187 24
-43 113 183 209 428 249 637 20 104 47 353 39 362 -2 2 -28 -78 -57 -178z"/>
<path d="M30145 15530 c-3 -5 -1 -10 4 -10 6 0 11 5 11 10 0 6 -2 10 -4 10 -3
0 -8 -4 -11 -10z"/>
<path d="M30360 15510 l-295 -5 292 -3 c186 -1 294 2 298 8 3 6 5 9 3 8 -2 -2
-136 -5 -298 -8z"/>
<path d="M30799 15507 c4 -5 32 -7 62 -5 l54 3 -62 5 c-34 3 -58 1 -54 -3z"/>
<path d="M35640 15514 c0 -6 11 -20 25 -32 19 -17 25 -18 25 -7 0 8 -5 15 -11
15 -7 0 -18 8 -25 18 -7 9 -14 12 -14 6z"/>
<path d="M35704 15460 c0 -13 4 -16 10 -10 7 7 7 13 0 20 -6 6 -10 3 -10 -10z"/>
<path d="M10248 15425 c-5 -24 -4 -25 50 -25 l56 0 -34 25 c-19 14 -41 25 -51
25 -10 0 -19 -10 -21 -25z"/>
<path d="M10436 15424 c-9 -24 -9 -24 37 -24 l42 1 -24 19 c-28 24 -47 25 -55
4z"/>
<path d="M35757 15411 c15 -16 29 -28 31 -26 8 7 -13 34 -34 44 -25 11 -25 11
3 -18z"/>
<path d="M25551 15380 c-3 -113 -137 -902 -175 -1035 -22 -73 100 202 129 290
62 196 70 255 69 500 0 129 -5 232 -12 250 l-10 30 -1 -35z"/>
<path d="M21821 15329 c-51 -114 -64 -186 -58 -329 3 -78 11 -147 22 -183 10
-31 19 -56 21 -54 11 11 61 624 51 633 -2 2 -18 -28 -36 -67z"/>
<path d="M23040 15280 c-49 -197 -38 -449 29 -640 l29 -85 1 104 c1 110 -16
489 -28 631 l-7 85 -24 -95z"/>
<path d="M35840 15340 c0 -5 5 -10 10 -10 6 0 10 5 10 10 0 6 -4 10 -10 10 -5
0 -10 -4 -10 -10z"/>
<path d="M11918 15263 c-18 -21 -41 -64 -36 -67 2 -2 39 -10 83 -20 45 -9 90
-19 101 -22 19 -5 20 -1 20 44 l-1 49 -65 13 c-36 7 -70 15 -76 17 -5 2 -17
-4 -26 -14z"/>
<path d="M30358 15243 c-63 -95 -152 -323 -133 -341 14 -14 122 115 143 170
25 66 36 155 25 186 -9 23 -10 23 -35 -15z"/>
<path d="M36813 15240 c0 -25 2 -35 4 -22 2 12 2 32 0 45 -2 12 -4 2 -4 -23z"/>
<path d="M23829 15063 c-18 -139 -18 -467 0 -603 15 -117 21 -114 43 21 26
164 9 689 -22 689 -4 0 -13 -48 -21 -107z"/>
<path d="M36800 15150 c0 -5 5 -10 10 -10 6 0 10 5 10 10 0 6 -4 10 -10 10 -5
0 -10 -4 -10 -10z"/>
<path d="M29944 15105 c-55 -55 -102 -153 -111 -226 l-5 -54 55 54 c63 61 102
137 113 219 3 28 4 52 0 52 -4 0 -27 -20 -52 -45z"/>
<path d="M28881 15020 c-71 -140 -115 -276 -135 -410 -8 -52 -13 -97 -11 -98
15 -15 123 209 159 328 24 79 60 289 52 298 -3 2 -32 -51 -65 -118z"/>
<path d="M9403 15065 l-28 -45 -90 0 c-49 0 -333 -7 -630 -15 -516 -13 -544
-15 -636 -38 -160 -41 -308 -127 -420 -244 -100 -103 -2560 -3244 -2588 -3303
-23 -49 -26 -68 -26 -165 0 -103 2 -114 32 -177 59 -125 171 -214 298 -237 28
-5 248 -12 490 -16 242 -4 508 -10 591 -14 l151 -6 -754 -1125 c-1705 -2542
-1597 -2377 -1688 -2564 -160 -327 -227 -615 -211 -911 40 -756 593 -1321
1464 -1495 325 -65 282 -63 1802 -70 925 -5 1412 -11 1465 -18 44 -6 242 -25
440 -41 2343 -198 6025 -343 10385 -411 1627 -25 2361 -31 4620 -37 4590 -11
8366 45 11945 177 2185 81 4332 207 5369 316 113 11 368 14 1396 14 1433 0
1518 4 1850 76 886 194 1431 791 1430 1567 -1 360 -121 727 -363 1102 -42 66
-394 593 -782 1170 l-706 1050 33 29 c18 16 55 49 81 73 l48 45 -43 37 c-24
21 -90 79 -147 129 l-105 91 -35 -30 c-340 -283 -629 -468 -1036 -665 -715
-344 -1660 -631 -2900 -879 -367 -73 -1116 -208 -1122 -201 -1 1 37 103 85
226 l89 223 239 63 c718 191 1749 504 1728 524 -12 11 -280 158 -393 214 -50
26 -91 51 -91 56 0 16 109 392 115 398 9 10 543 -247 824 -397 63 -34 120 -61
126 -61 6 0 78 27 160 60 82 33 153 60 158 60 22 0 482 210 679 309 315 159
547 297 801 474 80 55 116 87 114 98 -2 8 -50 83 -106 167 -55 83 -101 153
-101 155 0 3 206 8 458 12 767 12 907 18 974 44 220 85 330 352 231 562 -22
46 -372 499 -1272 1644 -683 869 -1264 1606 -1292 1638 -105 120 -275 222
-444 267 -69 18 -127 22 -423 32 -189 5 -345 9 -347 7 -2 -2 -54 -319 -115
-704 -107 -668 -114 -701 -139 -728 -23 -25 -131 -102 -153 -109 -5 -2 -25
-210 -47 -463 -43 -518 -40 -505 -131 -596 -55 -54 -165 -129 -237 -160 -26
-11 -50 -22 -52 -25 -2 -2 -16 -141 -31 -309 -30 -343 -21 -316 -125 -390
-178 -127 -514 -244 -860 -299 -142 -23 -345 -46 -400 -46 -15 0 -28 -18 -54
-75 -39 -88 -109 -184 -178 -245 -57 -51 -172 -128 -229 -153 -40 -18 -41 -21
-57 -96 -10 -42 -17 -82 -17 -90 0 -7 29 -45 66 -84 114 -125 153 -238 120
-350 -21 -71 -85 -138 -148 -156 -39 -11 -44 -16 -46 -43 -3 -42 -17 -66 -69
-119 -28 -29 -41 -49 -34 -53 16 -11 13 -73 -6 -113 -13 -28 -40 -52 -101 -89
-2 -1 8 -25 22 -52 82 -163 104 -382 53 -537 -51 -153 -161 -281 -304 -352
-68 -33 -86 -38 -149 -38 l-72 0 -6 -35 c-9 -60 -64 -157 -113 -199 -68 -60
-140 -84 -238 -79 -50 3 -93 11 -114 22 l-33 18 -87 -40 c-448 -207 -1021
-222 -1574 -42 -391 127 -758 320 -1377 725 -908 594 -1671 1013 -2488 1366
l-182 79 -98 -98 c-216 -218 -512 -455 -774 -622 -213 -135 -356 -215 -628
-351 -210 -105 -296 -142 -489 -209 -509 -176 -1033 -300 -1631 -385 -173 -24
-418 -63 -545 -85 -422 -73 -934 -129 -1470 -162 -131 -8 -453 -13 -855 -13
-609 0 -666 2 -1021 28 -322 23 -484 41 -676 72 -25 4 15 -18 112 -63 265
-123 380 -197 516 -332 49 -49 103 -115 128 -156 23 -40 78 -107 123 -153 91
-90 158 -129 348 -204 320 -126 380 -161 417 -246 13 -31 30 -67 36 -79 17
-35 107 -76 243 -112 181 -48 244 -95 244 -183 0 -77 -42 -117 -122 -117 l-41
0 6 -51 6 -52 -112 7 c-723 46 -2034 103 -2047 90 -5 -5 -16 -56 -26 -114 -21
-134 -46 -201 -89 -239 -71 -62 -157 -50 -240 33 -81 80 -98 122 -103 243 l-4
102 -52 5 c-51 6 -310 20 -1016 56 -654 33 -1062 43 -1510 37 -582 -7 -846
-29 -1528 -127 -413 -59 -597 -78 -832 -86 -291 -11 -455 9 -924 111 -307 66
-565 90 -961 88 -488 -2 -620 -11 -1510 -98 -759 -74 -1097 -91 -1640 -82
-609 10 -1026 45 -1680 142 -444 66 -815 104 -1645 170 -245 19 -490 40 -545
46 -538 55 -848 174 -1089 415 -176 175 -300 417 -336 653 -16 106 -7 293 20
416 112 505 541 1202 1060 1726 145 147 146 147 158 210 34 163 125 375 228
530 169 253 348 419 703 654 330 217 522 315 886 450 225 83 376 170 573 328
93 75 480 418 481 427 1 3 -88 48 -196 100 -601 288 -1048 553 -1383 819 -194
153 -437 418 -538 585 -121 199 -160 414 -105 579 11 31 19 57 17 57 -1 0 -15
-20 -31 -45z m33543 -6380 c77 -58 199 -156 272 -218 74 -62 149 -124 167
-140 l33 -27 373 25 c205 13 376 22 380 19 4 -2 5 -12 3 -22 -2 -9 -24 -205
-49 -436 -24 -230 -46 -420 -49 -423 -2 -2 -177 11 -388 31 l-383 36 -29 32
c-323 362 -576 604 -921 881 -82 66 -151 123 -153 126 -1 3 69 30 155 59 87
29 219 77 293 106 74 30 140 54 146 55 7 0 74 -46 150 -104z m-10369 -569
c561 -225 1234 -364 2083 -430 354 -28 559 -37 1038 -43 l472 -6 47 -89 c40
-76 49 -87 67 -82 117 36 671 295 916 428 67 37 126 63 130 59 47 -55 208
-251 213 -259 4 -8 -57 -50 -171 -117 -771 -454 -1393 -734 -2027 -912 -93
-26 -175 -53 -182 -59 -7 -6 -82 -129 -167 -274 -85 -145 -157 -263 -161 -263
-9 0 -565 471 -565 480 0 4 66 89 148 188 81 100 172 214 202 252 42 54 61 71
80 71 95 1 517 80 769 145 201 52 479 137 462 143 -6 2 -89 -3 -184 -12 -1562
-143 -2665 -50 -3365 284 l-102 49 -246 -211 c-135 -116 -247 -209 -249 -207
-9 10 107 465 123 480 29 28 504 449 507 449 1 0 74 -29 162 -64z m-3817
-2976 l-45 -7 40 -1 40 -2 -9 -85 c-6 -60 -13 -85 -23 -85 -9 0 -13 -13 -13
-40 0 -29 -4 -40 -15 -40 -11 0 -15 -11 -15 -40 0 -30 -5 -42 -17 -47 -10 -4
-24 -15 -31 -25 -8 -11 -26 -18 -45 -18 -18 0 -3011 -2 -6652 -4 -3641 -1
-7106 0 -7700 3 l-1079 6 -22 55 c-13 30 -30 82 -39 115 -10 33 -23 74 -30 90
-7 17 -19 48 -26 70 -7 22 -20 46 -28 53 -12 10 1561 12 7870 10 4336 0 7864
-4 7839 -8z m83 -17 c-7 -2 -19 -2 -25 0 -7 3 -2 5 12 5 14 0 19 -2 13 -5z"/>
<path d="M36802 15060 c-9 -15 -9 -21 1 -26 6 -4 9 -4 5 1 -4 4 -3 14 4 22 6
7 9 15 7 18 -3 2 -10 -4 -17 -15z"/>
<path d="M19620 15065 c0 -9 267 -174 385 -238 182 -98 287 -145 293 -129 2 6
14 27 27 46 l23 34 -76 27 c-95 33 -434 169 -559 223 -51 22 -93 38 -93 37z"/>
<path d="M9571 15010 c-160 -456 603 -1175 1970 -1856 l196 -97 65 40 c90 57
229 126 322 159 l79 28 -24 18 c-88 69 -110 91 -99 98 6 4 -52 33 -133 66
l-145 59 -6 64 c-3 36 -11 69 -17 75 -8 8 -9 4 -4 -14 12 -40 10 -153 -3 -177
-18 -33 -46 -45 -76 -33 -22 8 -26 16 -26 47 0 43 29 111 66 160 14 18 21 33
15 33 -6 0 -24 -21 -42 -47 -18 -27 -33 -49 -34 -51 -5 -6 -435 191 -680 313
-552 274 -935 518 -1167 743 -147 142 -204 229 -231 348 l-13 59 -13 -35z"/>
<path d="M25897 15020 c-27 -64 -95 -432 -111 -605 l-6 -60 25 45 c68 125 104
260 111 410 6 112 -6 240 -19 210z"/>
<path d="M36796 15005 c-3 -8 -1 -15 4 -15 6 0 10 7 10 15 0 8 -2 15 -4 15 -2
0 -6 -7 -10 -15z"/>
<path d="M30995 14938 c-66 -27 -172 -69 -235 -93 -63 -24 -128 -48 -143 -54
l-28 -11 18 -30 c9 -16 22 -30 28 -30 28 0 485 250 485 265 0 3 -1 5 -2 4 -2
0 -57 -23 -123 -51z"/>
<path d="M24577 14893 c-49 -161 -56 -293 -25 -455 6 -32 14 -58 18 -58 27 0
68 566 43 591 -6 6 -19 -22 -36 -78z"/>
<path d="M22352 14923 c-31 -73 -44 -156 -36 -221 8 -71 12 -79 31 -53 27 40
53 134 53 196 0 70 -9 125 -20 125 -4 0 -17 -21 -28 -47z"/>
<path d="M27685 14661 c-60 -152 -111 -283 -113 -291 -1 -8 25 14 58 49 110
117 173 280 168 434 l-3 84 -110 -276z"/>
<path d="M36791 14914 c0 -11 3 -14 6 -6 3 7 2 16 -1 19 -3 4 -6 -2 -5 -13z"/>
<path d="M27106 14723 c-28 -110 -36 -217 -26 -321 6 -52 13 -99 17 -105 11
-18 43 92 55 191 9 71 9 114 0 189 -7 54 -16 101 -21 106 -4 4 -16 -22 -25
-60z"/>
<path d="M26391 14693 c-21 -43 -50 -115 -64 -159 -26 -83 -52 -238 -45 -271
6 -28 105 181 128 272 21 81 38 235 27 235 -4 0 -24 -35 -46 -77z"/>
<path d="M10565 14667 c-12 -29 1 -171 21 -212 9 -20 27 -41 38 -46 18 -9 21
-17 17 -60 -8 -116 23 -211 75 -230 30 -10 80 17 94 52 11 25 9 36 -13 81 -14
29 -47 73 -74 98 l-47 45 47 -52 c83 -92 97 -154 42 -183 -53 -28 -94 35 -102
159 l-6 79 30 16 c17 8 33 23 37 31 9 25 7 68 -4 85 -7 11 -8 6 -4 -16 8 -41
-24 -77 -64 -72 -38 4 -61 58 -71 160 -5 56 -10 77 -16 65z"/>
<path d="M14239 14673 c-6 -38 -5 -73 1 -82 6 -11 881 -273 888 -266 6 6 -11
86 -22 98 -8 11 -833 257 -860 257 -3 0 -6 -3 -7 -7z"/>
<path d="M11076 14609 c-28 -33 -53 -110 -58 -174 -4 -55 20 -57 86 -5 70 53
106 106 105 151 -2 32 -2 32 -6 5 -5 -30 -96 -131 -141 -155 -21 -11 -22 -10
-22 22 0 47 26 129 51 161 29 36 16 33 -15 -5z"/>
<path d="M15521 14295 c-34 -18 -17 -23 90 -30 104 -6 105 -4 3 23 -58 16 -74
18 -93 7z"/>
<path d="M11267 14272 c-50 -55 -21 -122 62 -142 59 -14 175 -4 192 16 18 22
2 34 -32 22 -47 -16 -173 -6 -198 16 -26 24 -28 81 -3 95 9 6 12 11 6 11 -6 0
-18 -8 -27 -18z"/>
<path d="M18818 14212 c-122 -2 -129 -4 -144 -26 -10 -16 -32 -28 -65 -36 -91
-22 -139 -83 -139 -177 0 -74 17 -117 66 -172 60 -67 56 -80 -52 -189 -90 -92
-111 -134 -98 -195 15 -74 77 -127 147 -127 23 0 37 -6 41 -16 3 -9 6 -88 6
-177 0 -182 10 -219 67 -247 27 -13 31 -21 36 -68 14 -128 126 -230 292 -262
33 -6 88 -18 122 -26 34 -8 110 -14 168 -14 92 0 108 -3 125 -20 22 -22 27
-65 9 -76 -7 -4 4 -12 26 -20 43 -14 85 -51 85 -73 1 -26 25 -61 56 -82 32
-21 114 -26 157 -10 37 14 40 3 12 -45 -29 -50 -31 -67 -9 -88 25 -26 60 -19
166 34 103 51 135 59 156 38 18 -18 15 -36 -13 -72 -31 -41 -32 -67 -2 -101
15 -19 35 -28 67 -32 25 -2 60 -12 78 -20 32 -14 36 -13 86 12 50 25 55 26 83
11 26 -13 31 -22 36 -63 4 -38 12 -54 41 -80 24 -22 46 -33 66 -33 25 0 30 -4
30 -24 0 -31 32 -70 70 -86 54 -22 104 1 180 80 73 77 107 93 136 62 11 -10
33 -22 49 -26 59 -14 75 -32 75 -84 0 -53 5 -64 37 -81 38 -20 68 -12 139 34
38 25 84 50 104 55 51 14 197 13 206 -2 5 -7 8 -47 9 -90 0 -82 21 -130 61
-136 10 -2 33 -26 49 -54 40 -67 117 -135 168 -149 49 -13 114 -6 158 17 43
22 112 87 155 146 20 26 42 48 49 48 7 0 21 -22 29 -48 15 -44 15 -55 2 -106
-18 -69 -12 -110 22 -136 30 -24 51 -25 98 -5 32 13 39 13 67 -3 26 -14 53
-16 137 -14 139 3 162 -2 154 -34 -10 -37 20 -64 70 -64 23 0 50 6 61 14 11 7
42 16 68 18 30 4 57 14 72 28 41 39 79 1 135 -132 35 -87 79 -133 134 -143 43
-9 66 -1 145 46 96 57 148 51 219 -25 45 -49 86 -49 167 0 110 66 142 59 238
-57 78 -93 112 -110 231 -117 87 -4 93 -3 121 21 17 14 39 48 49 78 38 104
135 170 229 155 60 -10 97 -33 163 -101 33 -34 76 -71 95 -81 68 -35 284 -28
367 13 25 12 40 28 47 50 l10 31 45 -39 c50 -44 110 -79 136 -79 36 0 93 38
179 120 50 47 105 98 123 114 l32 30 38 -36 c88 -84 117 -87 177 -22 l42 46
106 -8 c58 -3 109 -9 115 -13 5 -3 18 -24 30 -46 51 -100 146 -127 315 -89 72
17 75 19 147 102 23 26 67 29 113 6 18 -8 70 -56 117 -106 86 -91 86 -91 142
-96 45 -3 66 0 102 18 54 25 112 90 122 132 7 34 -11 78 -33 78 -20 0 -16 28
6 40 28 15 53 13 135 -12 69 -20 75 -20 106 -5 21 11 59 17 104 17 39 1 105 5
146 10 68 7 78 11 105 43 28 33 33 34 80 30 41 -4 67 1 143 31 89 34 98 36
205 33 106 -2 115 -1 158 25 80 47 141 135 184 266 l17 53 35 -53 c129 -198
288 -251 416 -138 61 54 98 115 148 245 23 61 43 112 45 114 2 2 30 -4 62 -13
80 -22 97 -21 170 14 75 36 98 36 222 10 51 -12 105 -18 120 -15 37 8 70 40
76 75 l6 28 50 -26 c121 -63 243 -27 281 83 12 34 20 41 65 56 66 23 160 70
237 119 33 21 81 44 108 51 41 10 47 15 47 38 0 21 16 42 71 90 l70 63 59 -6
c38 -5 67 -3 81 5 20 10 21 17 17 100 l-5 89 39 0 c47 0 94 -23 103 -50 18
-56 72 -64 166 -24 59 24 63 25 107 10 25 -9 56 -16 68 -16 34 0 80 45 100 95
9 25 19 45 23 45 47 1 201 25 251 40 149 44 249 154 250 274 0 25 7 34 33 46
58 27 70 69 69 255 0 89 3 166 6 172 4 6 28 12 53 15 58 7 93 31 119 84 41 82
23 130 -88 240 -102 102 -108 122 -54 177 52 53 72 101 72 171 0 123 -51 175
-192 197 -40 6 -95 19 -123 29 -72 27 -93 28 -265 19 -1029 -56 -2171 -455
-3635 -1272 -870 -485 -1762 -1081 -2500 -1672 -142 -114 -207 -155 -245 -155
-39 0 -104 42 -270 175 -1047 836 -2405 1677 -3582 2219 -923 424 -1785 668
-2478 701 -63 3 -133 7 -155 8 -22 1 -97 1 -167 -1z"/>
<path d="M11033 14148 c-70 -34 -34 -148 47 -148 58 0 200 86 200 120 0 18 -6
16 -49 -15 -59 -42 -111 -65 -149 -65 -61 0 -86 76 -34 104 31 17 19 20 -15 4z"/>
<path d="M15055 14129 c-166 -19 -301 -74 -643 -261 -111 -61 -250 -130 -308
-154 -173 -72 -231 -88 -1324 -374 -563 -148 -821 -259 -1084 -469 -46 -36
-221 -189 -389 -340 -169 -151 -322 -284 -341 -297 -48 -33 -93 -49 -236 -84
-268 -67 -474 -177 -820 -435 -504 -377 -716 -589 -854 -855 -65 -127 -101
-230 -122 -359 -9 -53 -22 -108 -30 -122 -18 -37 -75 -85 -196 -168 -125 -84
-287 -244 -410 -401 -97 -125 -355 -511 -311 -465 6 6 44 60 85 120 250 363
468 596 683 728 55 34 123 84 151 113 45 44 53 59 63 110 33 168 64 265 116
369 121 244 302 435 685 724 504 381 691 486 1004 560 143 34 189 53 257 102
26 19 172 147 325 284 473 426 544 478 794 591 179 81 332 130 1033 330 356
101 705 205 775 230 154 56 286 122 503 249 299 177 459 243 634 265 49 6 91
13 94 16 6 6 -51 3 -134 -7z"/>
<path d="M12242 14029 c-12 -20 -44 -57 -72 -83 -55 -51 -94 -60 -124 -27 -25
28 -16 62 23 88 42 28 31 31 -14 3 -47 -29 -60 -64 -37 -104 24 -40 60 -53
102 -36 58 24 155 141 148 178 -2 12 -9 7 -26 -19z"/>
<path d="M16662 13971 c-18 -22 -29 -42 -24 -44 4 -3 25 -8 48 -11 l41 -7 1
50 c1 43 -2 51 -17 51 -10 0 -32 -18 -49 -39z"/>
<path d="M11440 13940 c-30 -30 -26 -76 11 -112 28 -29 33 -30 84 -24 95 11
196 58 173 81 -2 2 -34 -7 -71 -20 -74 -27 -144 -32 -170 -12 -28 21 -32 62
-8 86 12 12 17 21 11 21 -5 0 -19 -9 -30 -20z"/>
<path d="M17198 13834 c-21 -9 -38 -19 -38 -23 0 -3 31 -13 68 -22 l69 -15 -2
36 c-2 31 -6 35 -31 37 -16 1 -46 -5 -66 -13z"/>
<path d="M17380 13761 c0 -5 14 -11 31 -15 45 -9 49 -8 49 9 0 11 -11 15 -40
15 -22 0 -40 -4 -40 -9z"/>
<path d="M12585 13735 c-47 -46 -23 -124 69 -218 53 -55 70 -48 74 33 4 67
-12 165 -29 175 -5 4 -5 -3 0 -18 14 -37 23 -160 13 -176 -13 -18 -23 -11 -75
59 -58 77 -67 113 -36 146 30 32 15 31 -16 -1z"/>
<path d="M17786 13736 c-9 -35 2 -74 22 -80 43 -13 485 -116 486 -114 1 2 13
21 28 43 l25 41 -266 64 c-146 35 -271 65 -277 67 -6 2 -14 -7 -18 -21z"/>
<path d="M15785 13453 c-156 -60 -446 -127 -770 -178 -695 -110 -1010 -198
-1285 -360 -84 -50 -260 -179 -260 -191 0 -3 37 15 83 39 45 25 134 66 197 91
215 85 325 111 1045 250 396 77 629 148 860 261 181 89 246 133 130 88z"/>
<path d="M12307 13339 c4 -13 8 -18 11 -10 2 7 -1 18 -6 23 -8 8 -9 4 -5 -13z"/>
<path d="M15587 12686 c-58 -16 -123 -75 -138 -126 -21 -70 22 -162 98 -211
72 -45 144 -63 253 -63 151 0 252 37 304 112 70 101 -1 222 -162 273 -86 27
-283 36 -355 15z m210 -157 c47 -23 103 -71 103 -88 0 -17 -128 -13 -191 5
-59 17 -99 48 -99 75 0 23 13 27 84 28 41 1 73 -5 103 -20z"/>
<path d="M17846 12419 c-29 -23 -35 -72 -15 -112 19 -37 78 -105 110 -127 25
-18 32 -20 46 -9 26 22 4 187 -31 234 -10 14 -9 3 4 -35 20 -56 27 -170 11
-170 -13 0 -97 93 -115 128 -21 42 -20 61 6 89 27 29 19 30 -16 2z"/>
<path d="M12545 12284 c-245 -134 -426 -251 -590 -379 -414 -324 -716 -514
-949 -596 -38 -13 -74 -33 -81 -44 -6 -11 -40 -72 -75 -135 -138 -251 -293
-453 -503 -656 -112 -109 -312 -270 -394 -319 -26 -15 -39 -40 -93 -184 -213
-567 -534 -1117 -922 -1579 -71 -84 -78 -96 -78 -136 0 -29 6 -48 18 -59 17
-16 24 -9 129 116 420 504 758 1083 964 1655 l34 93 77 55 c360 253 659 587
865 967 l59 109 90 37 c324 134 705 394 1196 818 154 132 266 222 358 285 48
33 13 17 -105 -48z"/>
<path d="M36580 12235 c0 -8 59 -32 64 -27 12 11 6 24 -8 19 -8 -3 -17 -3 -20
1 -7 6 -36 12 -36 7z"/>
<path d="M36650 12196 c0 -2 7 -7 16 -10 8 -3 12 -2 9 4 -6 10 -25 14 -25 6z"/>
<path d="M36690 12196 c0 -2 7 -9 15 -16 9 -7 15 -8 15 -2 0 5 -7 12 -15 16
-8 3 -15 4 -15 2z"/>
<path d="M36737 12179 c7 -7 15 -10 18 -7 3 3 -2 9 -12 12 -14 6 -15 5 -6 -5z"/>
<path d="M15050 12163 c-158 -17 -347 -72 -485 -140 -316 -158 -521 -384 -621
-683 -25 -75 -28 -100 -28 -210 -1 -141 13 -185 80 -266 47 -59 184 -147 297
-194 348 -142 975 -228 1383 -191 302 28 615 116 883 248 222 109 265 158 307
353 18 86 18 251 -1 325 -56 222 -236 413 -506 539 -204 94 -510 176 -790 211
-112 14 -421 19 -519 8z m204 -165 c8 -14 7 -21 -6 -34 -30 -30 -75 9 -48 42
16 18 39 15 54 -8z m591 -23 c0 -27 -3 -30 -30 -30 -21 0 -31 5 -33 18 -6 33
6 49 35 45 24 -3 28 -8 28 -33z m-1023 -92 c38 -34 11 -103 -42 -103 -34 0
-50 17 -50 54 0 56 53 85 92 49z m1276 -51 c4 -28 -24 -40 -45 -19 -21 21 -9
49 19 45 15 -2 24 -11 26 -26z m-516 -39 c50 -45 -11 -125 -68 -88 -28 18 -32
60 -7 87 20 22 51 23 75 1z m-952 -77 c13 -23 13 -29 0 -53 -35 -63 -120 -48
-120 21 0 72 84 95 120 32z m505 -61 c0 -25 -4 -31 -27 -33 -19 -2 -28 2 -33
18 -8 27 12 52 39 48 16 -2 21 -10 21 -33z m1197 8 c34 -31 13 -93 -32 -93
-47 0 -67 67 -28 94 28 20 37 20 60 -1z m-429 -164 c5 -9 7 -28 3 -42 -7 -30
-49 -46 -75 -30 -20 13 -26 60 -10 79 16 19 69 14 82 -7z m499 4 c22 -20 24
-66 2 -87 -35 -35 -94 -9 -94 41 0 54 54 81 92 46z m-1843 -55 c14 -24 14 -30
-2 -63 -16 -34 -20 -36 -59 -33 -34 2 -45 8 -57 30 -14 24 -14 30 2 63 16 34
20 36 59 33 34 -2 45 -8 57 -30z m601 -28 c43 -43 13 -110 -49 -110 -20 0 -42
5 -49 12 -17 17 -15 78 5 100 21 24 68 23 93 -2z m200 -1 c7 -11 9 -31 6 -44
-11 -45 -81 -44 -92 1 -13 51 62 89 86 43z m1288 9 c7 -7 12 -21 12 -33 0 -12
-5 -26 -12 -33 -7 -7 -21 -12 -33 -12 -12 0 -26 5 -33 12 -7 7 -12 21 -12 33
0 12 5 26 12 33 7 7 21 12 33 12 12 0 26 -5 33 -12z m-2444 -20 c15 -25 -3
-52 -37 -56 -21 -3 -28 2 -33 22 -12 49 43 76 70 34z m2012 -63 c15 -23 15
-27 0 -50 -27 -41 -86 -28 -86 19 0 25 28 56 51 56 10 0 26 -11 35 -25z m-546
-29 c0 -2 3 -11 6 -19 9 -23 -24 -49 -47 -37 -19 10 -26 40 -12 53 7 8 53 10
53 3z m-1109 -57 c8 -16 8 -28 0 -46 -9 -19 -17 -24 -43 -21 -40 4 -56 28 -40
62 15 34 66 37 83 5z m1772 -11 c30 -35 4 -88 -43 -88 -31 0 -41 10 -60 58
-10 26 -10 35 0 47 17 21 79 10 103 -17z m-2003 -78 c41 -41 13 -110 -45 -110
-61 0 -85 61 -40 105 29 30 58 32 85 5z m455 -10 c37 -41 9 -110 -46 -110 -37
0 -59 24 -59 65 0 57 67 87 105 45z m1844 2 c12 -22 -3 -42 -31 -42 -12 0 -18
8 -18 23 0 40 31 52 49 19z m-469 -42 c26 -26 25 -68 -2 -97 -43 -46 -111 -16
-111 49 0 59 72 89 113 48z m-270 -20 c42 -42 13 -112 -47 -112 -30 0 -63 33
-63 64 0 25 44 68 70 68 11 0 29 -9 40 -20z m-1295 -34 c11 -8 18 -26 18 -46
0 -38 -23 -60 -63 -60 -34 0 -50 17 -50 54 0 55 52 84 95 52z m1393 -138 c5
-44 -56 -63 -72 -22 -10 27 13 55 42 52 21 -2 28 -9 30 -30z m347 6 c10 -11
15 -29 13 -52 -6 -68 -92 -85 -118 -23 -12 30 -2 66 24 83 19 13 64 9 81 -8z
m-1027 -55 c4 -31 -20 -53 -47 -44 -45 14 -30 79 17 73 21 -2 28 -9 30 -29z
m283 21 c35 -19 23 -95 -18 -111 -41 -15 -83 15 -83 60 0 50 53 76 101 51z
m-570 -46 c17 -21 0 -49 -31 -49 -31 0 -48 28 -31 49 8 9 21 16 31 16 10 0 23
-7 31 -16z"/>
<path d="M18326 11888 c-9 -20 -18 -64 -22 -100 l-6 -64 -62 10 c-40 6 -66 16
-78 30 -12 15 -10 5 7 -31 14 -29 25 -56 25 -60 1 -5 26 -24 56 -43 55 -34
124 -102 235 -230 55 -63 61 -66 165 -104 60 -21 156 -58 212 -82 57 -24 106
-44 108 -44 2 0 19 33 38 74 38 83 79 147 142 221 l42 51 -47 50 -47 50 -109
12 c-127 15 -457 60 -497 68 -20 4 -28 12 -28 27 0 24 -52 141 -67 150 -5 3 3
-20 19 -51 42 -88 44 -107 14 -136 -74 -75 -126 36 -86 185 14 52 5 63 -14 17z
m496 -315 c25 -23 22 -58 -7 -81 -29 -23 -141 -55 -173 -50 -21 3 -20 5 16 53
64 85 125 114 164 78z"/>
<path d="M18060 11780 c-8 -5 -26 -10 -39 -10 -24 0 -24 0 -5 -15 26 -20 29
-19 48 10 18 28 18 29 -4 15z"/>
<path d="M19837 11719 c-29 -17 -49 -68 -43 -105 6 -29 3 -35 -21 -48 -16 -8
-45 -17 -65 -21 l-36 -7 15 -46 c18 -57 21 -169 9 -318 -7 -82 -6 -120 4 -150
33 -104 131 -140 250 -91 42 18 154 85 189 114 2 1 -23 29 -57 60 -88 84 -95
123 -62 363 11 84 6 127 -22 183 -31 63 -110 95 -161 66z"/>
<path d="M30765 11466 c-76 -33 -111 -115 -102 -241 7 -102 18 -131 53 -139
16 -4 76 -39 135 -77 124 -81 182 -104 246 -96 48 5 85 27 117 70 26 36 32
123 16 253 l-13 102 -40 -26 c-37 -24 -49 -27 -133 -27 -79 0 -96 3 -121 22
-15 11 -26 27 -24 35 12 34 2 71 -25 98 -36 36 -70 44 -109 26z"/>
<path d="M17478 11300 c-138 -24 -213 -65 -277 -154 -45 -63 -52 -127 -21
-208 38 -101 125 -172 265 -214 88 -27 301 -25 410 5 254 68 369 220 291 386
-41 90 -128 142 -289 176 -97 20 -287 24 -379 9z m224 -247 c68 -32 138 -87
138 -108 0 -19 -91 -29 -210 -23 -119 6 -199 38 -220 89 -15 36 -9 44 46 65
62 23 168 13 246 -23z"/>
<path d="M12500 10910 c-141 -19 -324 -93 -406 -164 -43 -37 -79 -106 -89
-172 -14 -84 78 -196 187 -229 219 -65 605 110 660 299 37 128 -22 225 -157
261 -63 16 -105 17 -195 5z m47 -258 c26 -9 48 -22 50 -29 10 -29 -177 -93
-272 -93 -53 0 -69 4 -92 24 -23 20 -26 28 -17 43 13 21 84 63 128 74 44 11
148 2 203 -19z"/>
<path d="M20746 10855 c-15 -23 -15 -23 14 -12 33 12 38 22 16 30 -8 3 -21 -4
-30 -18z"/>
<path d="M29830 10574 c-25 -15 -76 -40 -115 -56 -38 -17 -71 -31 -73 -33 -1
-1 15 -29 37 -61 21 -32 45 -76 52 -98 l14 -38 80 4 c56 3 95 11 127 27 46 22
138 96 138 111 0 4 -14 13 -32 21 -17 7 -63 43 -102 81 -39 37 -73 68 -76 68
-3 0 -25 -12 -50 -26z"/>
<path d="M14039 10324 c-215 -38 -332 -137 -332 -280 0 -43 7 -64 34 -109 40
-66 76 -96 162 -135 92 -41 179 -60 302 -66 285 -15 488 107 512 306 4 37 1
58 -16 92 -52 109 -139 167 -289 194 -97 17 -274 16 -373 -2z m410 -228 c38
-20 39 -35 6 -74 -38 -46 -96 -64 -217 -70 -125 -5 -198 3 -198 23 0 30 94 95
185 128 60 21 175 18 224 -7z"/>
<path d="M12288 10229 c-456 -32 -812 -156 -994 -345 -112 -116 -166 -252
-167 -418 0 -116 15 -194 52 -268 23 -46 40 -62 121 -116 256 -170 586 -291
925 -338 222 -31 594 -20 880 26 335 54 552 162 616 305 34 75 38 233 10 346
-79 318 -359 604 -712 727 -121 43 -254 69 -403 82 -140 11 -168 11 -328 -1z
m-154 -105 c10 -4 16 -18 16 -36 0 -26 -3 -29 -27 -26 -21 2 -29 9 -31 27 -2
13 2 28 10 32 16 11 13 10 32 3z m531 -64 c0 -29 -32 -41 -41 -16 -9 24 4 48
23 44 12 -2 18 -12 18 -28z m-760 -80 c0 -16 -6 -26 -18 -28 -19 -4 -32 20
-23 44 9 25 41 13 41 -16z m1167 -55 c28 -63 -50 -107 -88 -50 -26 39 -6 75
41 75 28 0 38 -5 47 -25z m-706 -3 c35 -23 34 -82 -2 -96 -53 -20 -92 56 -46
92 18 14 32 15 48 4z m-675 -72 c27 -15 26 -66 -2 -80 -16 -9 -26 -8 -45 5
-28 18 -31 46 -8 69 18 19 28 20 55 6z m1554 -56 c45 -46 -17 -125 -70 -90
-32 21 -40 52 -21 81 19 29 66 34 91 9z m-490 -34 c0 -20 -6 -26 -26 -28 -28
-3 -43 16 -32 44 3 9 15 14 32 12 20 -2 26 -8 26 -28z m-1111 -73 c13 -36 -2
-61 -38 -65 -35 -4 -56 13 -56 47 0 36 19 53 55 49 22 -2 32 -10 39 -31z m434
-9 c17 -17 15 -53 -3 -68 -38 -31 -96 27 -65 65 15 18 51 20 68 3z m-669 -30
c12 -31 -4 -58 -35 -58 -31 0 -54 41 -34 65 19 23 59 19 69 -7z m375 -84 c19
-18 21 -45 4 -62 -39 -39 -100 17 -63 58 22 24 38 25 59 4z m774 -21 c2 -24
-2 -34 -17 -43 -31 -16 -61 3 -61 39 0 36 8 43 45 39 26 -3 30 -8 33 -35z
m184 10 c36 -32 11 -103 -36 -103 -50 1 -79 65 -46 104 16 21 59 20 82 -1z
m548 -3 c22 -22 26 -51 10 -81 -8 -14 -21 -19 -50 -19 -29 0 -42 5 -50 19 -36
69 36 135 90 81z m-1583 -66 c3 -9 -1 -31 -10 -50 -14 -27 -22 -34 -46 -34
-46 0 -68 52 -35 84 21 21 83 21 91 0z m547 0 c7 -19 -10 -44 -31 -44 -17 0
-27 24 -19 45 7 20 42 19 50 -1z m1314 -21 c3 -29 0 -33 -21 -33 -35 0 -52 23
-37 50 18 34 54 23 58 -17z m-2183 -54 c0 -17 -6 -24 -20 -24 -23 0 -33 34
-13 46 20 13 33 5 33 -22z m1873 -56 c2 -24 -2 -34 -17 -43 -31 -16 -61 3 -61
39 0 36 8 43 45 39 26 -3 30 -8 33 -35z m-1428 7 c10 -5 21 -21 24 -35 13 -50
-35 -96 -76 -74 -29 15 -38 28 -38 58 0 48 46 74 90 51z m243 -48 c33 -29 16
-83 -30 -97 -17 -4 -29 1 -48 19 -31 31 -32 50 -1 81 26 26 46 25 79 -3z m975
-8 c25 -17 31 -71 10 -92 -17 -17 -64 -15 -82 4 -33 33 -7 104 39 104 6 0 21
-7 33 -16z m403 -24 c29 -16 26 -75 -5 -95 -54 -36 -114 38 -69 87 18 20 45
23 74 8z m-1784 -82 c27 -25 29 -45 7 -76 -31 -44 -104 -16 -104 40 0 23 35
58 57 58 9 0 27 -10 40 -22z m1527 11 c42 -20 41 -90 -2 -101 -58 -15 -98 63
-50 96 27 19 21 19 52 5z m-1236 -40 c3 -28 -16 -43 -42 -33 -38 14 -22 68 18
62 14 -2 22 -12 24 -29z m360 -51 c17 -17 15 -73 -2 -87 -24 -20 -69 -9 -85
20 -13 24 -13 29 2 53 19 28 63 36 85 14z m236 -21 c11 -18 0 -47 -21 -54 -12
-4 -43 23 -43 37 0 14 31 41 43 37 6 -2 15 -11 21 -20z m246 -52 c26 -31 -18
-71 -47 -42 -19 19 -8 57 16 57 10 0 24 -7 31 -15z"/>
<path d="M22410 10135 c39 -43 130 -110 187 -139 65 -32 172 -52 236 -42 l48
7 -73 48 c-40 27 -94 69 -121 95 l-47 46 -86 0 c-65 0 -83 -3 -78 -12 6 -10 5
-10 -8 -1 -8 7 -17 10 -20 8 -3 -3 -18 -1 -34 5 l-29 11 25 -26z"/>
<path d="M23705 10150 c-3 -5 -1 -10 4 -10 6 0 11 5 11 10 0 6 -2 10 -4 10 -3
0 -8 -4 -11 -10z"/>
<path d="M25776 10151 c-10 -15 -11 -14 42 -35 24 -9 49 -13 55 -10 7 4 9 4 5
-1 -4 -4 19 -25 50 -46 31 -21 80 -55 107 -74 166 -119 336 -155 457 -97 26
13 85 59 132 102 88 82 155 123 219 135 21 4 40 11 43 17 3 5 -6 6 -22 2 -17
-4 -25 -3 -21 3 7 11 -22 11 -41 -1 -6 -4 -12 -4 -12 0 0 3 -8 0 -17 -7 -9 -8
-14 -9 -10 -2 4 6 3 13 -3 15 -5 1 -211 1 -457 -2 -293 -3 -451 -2 -455 5 -5
6 -8 5 -8 -2 0 -17 -47 -17 -52 -1 -3 9 -6 9 -12 -1z"/>
<path d="M26908 10143 c6 -2 18 -2 25 0 6 3 1 5 -13 5 -14 0 -19 -2 -12 -5z"/>
<path d="M27593 10120 c6 -14 13 -28 16 -32 6 -7 303 -98 320 -98 6 0 0 24
-13 53 -13 28 -28 64 -34 79 l-11 27 -144 -2 -144 -2 10 -25z"/>
<path d="M18935 10084 c-409 -62 -743 -273 -909 -575 -64 -117 -87 -193 -93
-311 -6 -106 -6 -108 26 -173 100 -203 400 -362 950 -501 398 -101 754 -118
1112 -53 198 35 484 129 572 187 75 50 146 207 166 364 17 140 -4 252 -72 383
-51 99 -185 238 -302 314 -223 146 -599 286 -930 347 -87 15 -450 28 -520 18z
m359 -168 c9 -13 7 -20 -7 -31 -25 -18 -47 -8 -47 20 0 37 34 44 54 11z m-420
-62 c35 -34 6 -94 -45 -94 -30 0 -49 23 -49 59 0 27 26 51 55 51 13 0 31 -7
39 -16z m981 -19 c0 -24 -5 -31 -24 -33 -31 -5 -45 11 -37 43 5 21 12 26 34
23 23 -2 27 -8 27 -33z m-1197 -91 c44 -30 15 -114 -40 -114 -55 0 -81 83 -36
114 12 9 29 16 38 16 9 0 26 -7 38 -16z m920 -50 c26 -18 28 -50 5 -76 -22
-25 -59 -23 -77 4 -20 29 -20 30 5 62 24 30 36 32 67 10z m497 -24 c0 -16 -6
-26 -18 -28 -19 -4 -32 20 -23 44 9 25 41 13 41 -16z m-920 -50 c8 -27 -12
-52 -39 -48 -21 3 -32 28 -22 54 8 22 54 18 61 -6z m-595 -120 c35 -19 33 -88
-4 -112 -37 -25 -96 7 -96 51 0 57 50 88 100 61z m1724 -16 c21 -20 20 -43 -1
-66 -20 -22 -46 -23 -67 -2 -31 30 -9 84 34 84 10 0 26 -7 34 -16z m-2049 -29
c0 -27 -3 -30 -30 -30 -21 0 -31 5 -33 18 -6 33 6 49 35 45 24 -3 28 -8 28
-33z m909 -74 c25 -27 17 -70 -17 -95 -26 -19 -30 -19 -55 -5 -62 34 -47 119
22 119 20 0 40 -8 50 -19z m704 7 c21 -21 15 -67 -12 -79 -34 -16 -66 3 -66
39 0 33 16 52 45 52 12 0 26 -5 33 -12z m-520 -20 c30 -30 3 -83 -39 -76 -32
5 -45 31 -31 62 13 28 49 35 70 14z m1012 -47 c15 -29 12 -49 -10 -71 -24 -24
-53 -26 -74 -4 -19 18 -21 65 -4 82 20 20 76 15 88 -7z m-1785 -25 c18 -26 11
-52 -16 -67 -28 -15 -59 6 -59 39 0 53 47 71 75 28z m-223 -63 c40 -36 10
-103 -47 -103 -39 0 -55 16 -55 54 0 57 60 87 102 49z m2222 -2 c33 -36 -5
-88 -51 -70 -27 10 -30 44 -6 71 21 23 36 23 57 -1z m-950 3 c20 -8 21 -50 1
-58 -36 -14 -61 24 -33 52 14 14 12 14 32 6z m530 -30 c9 -8 16 -20 16 -25 0
-51 -71 -69 -92 -24 -21 46 40 86 76 49z m-1366 -31 c43 -58 -42 -138 -92 -87
-24 24 -20 80 7 99 25 18 66 12 85 -12z m1465 -71 c34 -30 8 -92 -39 -92 -38
0 -77 78 -53 106 14 18 64 10 92 -14z m-1659 2 c37 -36 9 -97 -43 -97 -37 0
-51 15 -51 55 0 33 24 58 55 58 13 0 31 -7 39 -16z m1230 -103 c25 -27 17 -70
-17 -95 -26 -19 -30 -19 -55 -5 -34 18 -42 71 -16 100 22 24 66 24 88 0z m256
-11 c26 -26 25 -51 -1 -84 -38 -48 -109 -24 -109 37 0 61 67 90 110 47z m449
-4 c15 -18 3 -46 -20 -46 -25 0 -35 26 -19 45 15 19 24 19 39 1z m-1284 -136
c0 -38 -24 -52 -50 -30 -31 25 -9 73 30 68 16 -2 20 -11 20 -38z m-276 21 c9
-6 11 -18 7 -36 -5 -21 -12 -26 -34 -23 -30 3 -41 30 -22 53 14 17 29 19 49 6z
m551 -31 c25 -25 25 -51 2 -80 -20 -25 -63 -30 -87 -10 -35 29 -3 110 45 110
11 0 29 -9 40 -20z m375 -15 c0 -24 -5 -31 -24 -33 -31 -5 -45 11 -37 43 5 21
12 26 34 23 23 -2 27 -8 27 -33z m323 -21 c44 -30 15 -114 -40 -114 -53 0 -77
71 -38 110 24 24 48 25 78 4z"/>
<path d="M24305 10080 c-11 -5 -35 -9 -53 -9 l-33 -1 73 -66 c127 -115 182
-144 267 -144 l46 1 -120 114 c-119 113 -137 124 -180 105z"/>
<path d="M17311 9925 c-190 -43 -282 -106 -310 -212 -16 -57 -1 -107 45 -161
68 -80 178 -116 354 -115 95 0 128 5 192 25 148 49 232 142 233 259 0 48 -5
64 -31 100 -36 50 -81 84 -133 100 -58 18 -276 21 -350 4z m293 -175 c14 -5
26 -16 26 -24 0 -27 -50 -74 -98 -91 -52 -18 -262 -33 -262 -19 0 32 88 103
158 129 44 16 140 19 176 5z"/>
<path d="M37570 9709 c0 -5 5 -7 10 -4 6 3 10 8 10 11 0 2 -4 4 -10 4 -5 0
-10 -5 -10 -11z"/>
<path d="M15610 9666 c-350 -51 -610 -175 -821 -393 -151 -156 -238 -324 -270
-517 -14 -89 -7 -219 15 -293 46 -149 243 -252 561 -294 150 -20 615 -17 780
5 315 42 632 152 885 306 115 70 263 182 293 222 40 53 60 138 59 258 -1 191
-49 309 -177 437 -71 71 -96 88 -196 136 -119 59 -240 95 -399 123 -131 22
-597 29 -730 10z m478 -78 c18 -18 15 -46 -6 -57 -39 -21 -73 36 -34 58 22 13
26 13 40 -1z m-514 -93 c7 -19 -20 -46 -39 -39 -15 6 -20 35 -8 47 12 12 41 7
47 -8z m763 -11 c3 -8 -2 -23 -11 -32 -15 -15 -17 -15 -33 0 -13 14 -14 20 -3
32 16 20 39 20 47 0z m-445 -121 c26 -23 23 -59 -6 -78 -48 -32 -100 32 -61
75 22 24 43 25 67 3z m680 -10 c25 -22 23 -50 -6 -68 -34 -23 -66 -5 -66 35 0
44 39 63 72 33z m-1358 -19 c32 -32 10 -94 -34 -94 -44 0 -65 57 -33 92 20 22
46 23 67 2z m1437 -104 c38 -21 15 -100 -28 -100 -24 0 -53 30 -53 53 0 24 27
57 47 57 8 0 23 -5 34 -10z m-1133 -43 c6 -28 -16 -49 -39 -36 -19 10 -25 39
-12 53 13 13 48 1 51 -17z m1356 10 c38 -27 -2 -95 -41 -71 -25 16 -29 55 -7
71 10 7 21 13 24 13 3 0 14 -6 24 -13z m-1808 -36 c16 -30 4 -62 -28 -80 -23
-13 -29 -13 -52 2 -30 20 -35 66 -10 92 24 24 76 16 90 -14z m1142 -3 c30 -30
3 -83 -39 -76 -32 5 -45 31 -31 62 13 28 49 35 70 14z m300 -90 c7 -7 12 -21
12 -33 0 -44 -60 -63 -80 -26 -14 27 -13 37 6 55 18 19 45 21 62 4z m-758 -63
c15 -19 6 -61 -16 -69 -42 -16 -75 24 -54 64 13 24 52 27 70 5z m880 -16 c24
-44 -12 -90 -57 -75 -23 8 -54 62 -47 81 4 10 20 15 50 15 34 0 46 -5 54 -21z
m-1052 -11 c17 -17 15 -68 -5 -90 -36 -40 -93 -12 -93 46 0 40 15 56 55 56 17
0 36 -5 43 -12z m1320 -31 c4 -20 -25 -34 -40 -19 -15 15 -1 44 19 40 10 -2
19 -11 21 -21z m-860 -13 c4 -27 -26 -40 -46 -20 -21 20 -8 48 20 44 14 -2 24
-11 26 -24z m-1010 0 c46 -32 17 -114 -40 -114 -24 0 -58 35 -58 60 0 23 42
70 62 70 8 0 24 -7 36 -16z m1466 -80 c20 -20 21 -78 1 -94 -20 -17 -64 -16
-80 1 -25 26 -26 55 -4 82 23 30 59 35 83 11z m-1759 -39 c0 -27 -3 -30 -30
-30 -21 0 -31 5 -33 18 -5 25 17 49 42 45 16 -2 21 -10 21 -33z m1533 -18 c16
-12 15 -58 -1 -81 -16 -21 -60 -24 -82 -6 -18 15 -20 60 -2 82 21 28 53 29 85
5z m-1196 -52 c10 -22 9 -29 -9 -46 -26 -26 -60 -18 -69 17 -13 52 56 77 78
29z m1606 -27 c21 -21 15 -75 -10 -92 -29 -20 -47 -20 -70 1 -22 20 -24 66 -2
87 18 19 65 21 82 4z m-1390 -20 c21 -21 15 -75 -10 -92 -29 -20 -47 -20 -70
1 -22 20 -23 61 -1 85 18 20 63 24 81 6z m1077 -37 c0 -34 -30 -51 -51 -29
-25 24 -10 60 24 56 21 -2 27 -8 27 -27z m-1477 -23 c17 -17 15 -73 -2 -87 -8
-7 -30 -11 -48 -9 -25 2 -35 9 -42 30 -15 43 6 78 47 78 18 0 38 -5 45 -12z
m244 -55 c36 -32 15 -93 -32 -93 -39 0 -65 36 -51 73 15 39 52 48 83 20z m908
-12 c14 -28 12 -52 -7 -73 -32 -35 -93 -13 -93 34 0 51 77 80 100 39z m-263
-37 c8 -22 -10 -49 -32 -49 -10 0 -22 7 -28 16 -15 24 -1 49 28 49 15 0 28 -7
32 -16z m-243 -76 c15 -24 -13 -53 -43 -43 -23 7 -28 34 -9 53 16 16 38 12 52
-10z"/>
<path d="M37435 9600 c-3 -5 -1 -10 4 -10 6 0 11 5 11 10 0 6 -2 10 -4 10 -3
0 -8 -4 -11 -10z"/>
<path d="M29468 9275 c-3 -3 -211 -6 -461 -5 -432 0 -456 -1 -451 -17 5 -14 4
-15 -4 -4 -14 20 -45 17 -162 -17 -221 -65 -606 -149 -915 -201 -1545 -258
-3413 -264 -4975 -15 -150 23 -297 50 -332 60 -9 3 4 -16 29 -41 l46 -45 209
-35 c276 -45 349 -66 495 -141 l123 -63 192 -30 c346 -56 453 -70 768 -101
1035 -101 2201 -88 3195 36 834 104 1552 276 2204 530 66 26 118 51 115 56 -4
6 1 8 12 4 11 -3 26 -1 34 5 11 7 0 9 -40 7 -40 -2 -54 0 -52 10 2 12 -20 17
-30 7z m-941 -31 c-3 -3 -12 -4 -19 -1 -8 3 -5 6 6 6 11 1 17 -2 13 -5z"/>
<path d="M10341 8899 c-145 -24 -238 -115 -229 -223 15 -171 177 -275 431
-276 181 0 306 46 367 137 29 43 31 54 28 109 -4 70 -31 115 -101 165 -52 38
-177 76 -292 89 -103 11 -129 11 -204 -1z m195 -204 c62 -30 139 -99 129 -116
-11 -16 -171 -5 -244 17 -92 27 -147 106 -83 120 15 3 32 7 37 10 24 9 114 -9
161 -31z"/>
<path d="M17853 8680 c-75 -14 -136 -45 -170 -88 -49 -60 -56 -81 -50 -137 18
-179 200 -285 467 -272 133 6 223 34 286 90 56 50 74 84 74 143 0 118 -88 199
-267 245 -88 22 -266 32 -340 19z m203 -200 c26 -13 68 -43 93 -68 l46 -45
-34 -8 c-42 -9 -169 3 -229 22 -52 15 -102 59 -102 87 0 46 139 53 226 12z"/>
<path d="M22175 8435 c-194 -36 -306 -128 -322 -265 -11 -91 69 -205 186 -264
197 -100 499 -113 671 -29 119 58 197 178 188 289 -4 52 -49 135 -95 176 -37
33 -150 78 -237 93 -106 18 -294 18 -391 0z m438 -239 c46 -19 49 -51 10 -88
-56 -54 -172 -75 -318 -58 -54 5 -101 13 -106 16 -30 18 75 97 177 134 68 24
175 22 237 -4z"/>
<path d="M9537 8334 c-10 -58 -8 -120 4 -169 14 -57 69 -108 141 -131 82 -26
352 -30 574 -9 236 23 583 22 874 -2 222 -18 385 -21 770 -13 178 3 210 1 365
-25 214 -36 393 -38 678 -7 224 25 427 28 537 8 161 -29 286 -92 329 -166 37
-65 92 -115 145 -133 l46 -16 0 67 c0 159 -42 199 -305 292 -279 99 -387 112
-865 108 l-345 -3 -125 38 c-166 50 -237 55 -472 28 -221 -25 -292 -26 -492
-6 -98 9 -200 12 -302 8 -129 -5 -164 -3 -219 12 -87 23 -172 16 -295 -25
-117 -38 -191 -41 -270 -10 -101 39 -234 60 -420 66 -247 7 -304 24 -335 97
l-12 29 -6 -38z"/>
<path d="M16455 7889 c-82 -8 -137 -22 -203 -51 -26 -11 -67 -22 -92 -24 -29
-3 -60 -15 -87 -34 -82 -59 -74 -58 -588 -49 -375 6 -475 5 -499 -5 -43 -18
-85 -69 -153 -183 -31 -54 -75 -117 -97 -141 -44 -48 -42 -53 28 -73 44 -12
100 -5 134 17 12 8 38 47 58 87 44 91 64 112 132 137 135 51 260 61 417 35
243 -41 396 -30 642 49 204 65 249 71 483 70 240 -1 402 -23 716 -98 239 -58
325 -70 444 -62 105 6 198 29 308 76 l73 31 102 -11 c116 -13 155 -10 883 65
109 11 166 12 255 4 62 -5 231 -11 374 -13 220 -3 297 -8 500 -34 132 -17 353
-41 490 -52 394 -33 583 -66 806 -141 64 -21 119 -39 123 -39 14 0 -49 102
-77 126 -51 43 -122 73 -209 89 -133 24 -435 64 -533 71 -49 3 -112 13 -138
21 -42 13 -58 13 -115 2 -112 -22 -264 -15 -508 25 -264 43 -330 44 -567 10
-172 -25 -184 -26 -246 -11 -36 8 -136 31 -221 51 -192 45 -250 46 -372 7
-247 -78 -278 -79 -527 -10 -57 16 -131 32 -165 35 -62 6 -63 6 -125 -40 -122
-89 -239 -105 -468 -62 -71 14 -214 32 -317 41 -129 11 -224 25 -304 46 -64
16 -144 32 -177 35 -33 3 -71 6 -85 8 -14 1 -56 -1 -95 -5z"/>
</g>
</svg>
